<?xml version="1.0" encoding="UTF-8" standalone="no"?>
<!-- Created with Inkscape (http://www.inkscape.org/) -->

<svg
   width="128"
   height="128"
   id="svg2"
   version="1.1"
   inkscape:version="1.1.1 (3bf5ae0d25, 2021-09-20)"
   sodipodi:docname="folder-system.svg"
   xmlns:inkscape="http://www.inkscape.org/namespaces/inkscape"
   xmlns:sodipodi="http://sodipodi.sourceforge.net/DTD/sodipodi-0.dtd"
   xmlns:xlink="http://www.w3.org/1999/xlink"
   xmlns="http://www.w3.org/2000/svg"
   xmlns:svg="http://www.w3.org/2000/svg"
   xmlns:rdf="http://www.w3.org/1999/02/22-rdf-syntax-ns#"
   xmlns:cc="http://creativecommons.org/ns#"
   xmlns:dc="http://purl.org/dc/elements/1.1/">
  <defs
     id="defs4">
    <inkscape:perspective
       sodipodi:type="inkscape:persp3d"
       inkscape:vp_x="0 : 64 : 1"
       inkscape:vp_y="0 : 1000 : 0"
       inkscape:vp_z="128 : 64 : 1"
       inkscape:persp3d-origin="64 : 42.666667 : 1"
       id="perspective8890" />
    <linearGradient
       id="linearGradient3785-6">
      <stop
         style="stop-color:#ffffff;stop-opacity:1;"
         offset="0"
         id="stop3787-4" />
      <stop
         style="stop-color:#d6d6d6;stop-opacity:1;"
         offset="1"
         id="stop3789-3" />
    </linearGradient>
    <linearGradient
       id="linearGradient3802-3">
      <stop
         style="stop-color:#ffc475;stop-opacity:1;"
         offset="0"
         id="stop3804-4" />
      <stop
         style="stop-color:#ff004a;stop-opacity:1;"
         offset="1"
         id="stop3806-1" />
    </linearGradient>
    <radialGradient
       inkscape:collect="always"
       xlink:href="#linearGradient3802-3"
       id="radialGradient3852"
       cx="153.60025"
       cy="1046.2241"
       fx="153.60025"
       fy="1046.2241"
       r="7.5"
       gradientTransform="matrix(1.6666654,-3.5764157e-7,3.5147543e-7,1.5999884,-101.0006,-626.5843)"
       gradientUnits="userSpaceOnUse" />
    <linearGradient
       id="linearGradient3802-3-5">
      <stop
         style="stop-color:#ffc475;stop-opacity:1;"
         offset="0"
         id="stop3804-4-7" />
      <stop
         style="stop-color:#ff004a;stop-opacity:1;"
         offset="1"
         id="stop3806-1-0" />
    </linearGradient>
    <linearGradient
       id="linearGradient3785-0-1">
      <stop
         style="stop-color:#ffffff;stop-opacity:1;"
         offset="0"
         id="stop3787-7-8" />
      <stop
         style="stop-color:#d6d6d6;stop-opacity:1;"
         offset="1"
         id="stop3789-1-7" />
    </linearGradient>
    <clipPath
       clipPathUnits="userSpaceOnUse"
       id="clipPath4405">
      <path
         id="path4407"
         style="opacity:0.8;fill:#888a85;fill-opacity:1;stroke:none;stroke-width:0.416667;stroke-miterlimit:4;stroke-dasharray:none"
         d="m 4,936.36218 c -2.2159999,0 -4,1.784 -4,4 v 8 28 c 0,-2.216 1.7840001,-4 4,-4 H 22.666016 25.333984 40 c 7.999998,0 8.000003,-8 16,-8 h 68 c 2.216,0 4,1.784 4,4 v -20 c 0,-2.216 -1.784,-4 -4,-4 H 53.333984 c -10.666667,0 -10.667318,-8 -21.333984,-8 z" />
    </clipPath>
    <clipPath
       clipPathUnits="userSpaceOnUse"
       id="clipPath2182">
      <path
         id="path2184"
         style="opacity:1;fill:#a40000;stroke:none;stroke-width:2;stroke-linecap:round;stroke-linejoin:round"
         d="m 61,60 v 2.279297 a 18,18 0 0 0 -7.400391,3.078125 l -1.621093,-1.621094 -4.242188,4.242188 1.621094,1.621093 A 18,18 0 0 0 46.279297,77 H 44 v 6 h 2.279297 a 18,18 0 0 0 3.078125,7.400391 l -1.621094,1.621093 4.242188,4.242188 1.621093,-1.621094 A 18,18 0 0 0 61,97.720703 V 100 h 6 v -2.279297 a 18,18 0 0 0 7.400391,-3.078125 l 1.621093,1.621094 4.242188,-4.242188 -1.621094,-1.621093 A 18,18 0 0 0 81.720703,83 H 84 v -6 h -2.257812 a 18,18 0 0 0 -3.074219,-7.423828 l 1.595703,-1.597656 -4.242188,-4.242188 -1.595703,1.595703 A 18,18 0 0 0 67,62.257812 V 60 Z m 3,17 a 3,3 0 0 1 3,3 3,3 0 0 1 -3,3 3,3 0 0 1 -3,-3 3,3 0 0 1 3,-3 z" />
    </clipPath>
    <radialGradient
       inkscape:collect="always"
       xlink:href="#linearGradient4216-42-6"
       id="radialGradient9700"
       cx="52"
       cy="968.66986"
       fx="52"
       fy="968.66986"
       r="64"
       gradientTransform="matrix(1,0,0,0.81250025,0,185.31767)"
       gradientUnits="userSpaceOnUse" />
    <linearGradient
       id="linearGradient4216-42-6">
      <stop
         style="stop-color:#b3b3b3;stop-opacity:1;"
         offset="0"
         id="stop4218-69-8" />
      <stop
         style="stop-color:#474747;stop-opacity:1;"
         offset="1"
         id="stop4220-10-1" />
    </linearGradient>
    <clipPath
       clipPathUnits="userSpaceOnUse"
       id="clipPath4405-3">
      <path
         id="path4407-6"
         style="opacity:0.8;fill:#888a85;fill-opacity:1;stroke:none;stroke-width:0.416667;stroke-miterlimit:4;stroke-dasharray:none"
         d="m 4,936.36218 c -2.2159999,0 -4,1.784 -4,4 v 8 28 c 0,-2.216 1.7840001,-4 4,-4 H 22.666016 25.333984 40 c 7.999998,0 8.000003,-8 16,-8 h 68 c 2.216,0 4,1.784 4,4 v -20 c 0,-2.216 -1.784,-4 -4,-4 H 53.333984 c -10.666667,0 -10.667318,-8 -21.333984,-8 z" />
    </clipPath>
    <filter
       inkscape:collect="always"
       style="color-interpolation-filters:sRGB"
       id="filter4275"
       x="-0.059765635"
       y="-0.10065787"
       width="1.1195313"
       height="1.2013157">
      <feGaussianBlur
         inkscape:collect="always"
         stdDeviation="3.1875004"
         id="feGaussianBlur4277" />
    </filter>
    <radialGradient
       inkscape:collect="always"
       xlink:href="#linearGradient1685"
       id="radialGradient2626"
       cx="72.521233"
       cy="998.11505"
       fx="72.521233"
       fy="998.11505"
       r="64"
       gradientTransform="matrix(1.4375003,0,-2.6475526e-5,1.4375021,-40.222863,-458.43033)"
       gradientUnits="userSpaceOnUse" />
    <linearGradient
       inkscape:collect="always"
       id="linearGradient1685">
      <stop
         style="stop-color:#fdfdfd;stop-opacity:1"
         offset="0"
         id="stop1681" />
      <stop
         style="stop-color:#b4b4b4;stop-opacity:1"
         offset="1"
         id="stop1683" />
    </linearGradient>
    <radialGradient
       inkscape:collect="always"
       xlink:href="#linearGradient4216-42-6"
       id="radialGradient10223"
       cx="156"
       cy="999.20837"
       fx="156"
       fy="999.20837"
       r="16"
       gradientTransform="matrix(1,0,0,0.81250062,0,188.50478)"
       gradientUnits="userSpaceOnUse" />
    <radialGradient
       inkscape:collect="always"
       xlink:href="#linearGradient1685"
       id="radialGradient20975"
       gradientUnits="userSpaceOnUse"
       gradientTransform="matrix(1.53125,0,0,1.5312505,-82.875,887.817)"
       cx="156"
       cy="76.111115"
       fx="156"
       fy="76.111115"
       r="16" />
    <radialGradient
       inkscape:collect="always"
       xlink:href="#linearGradient1685"
       id="radialGradient4484"
       cx="156"
       cy="76.111115"
       fx="156"
       fy="76.111115"
       r="16"
       gradientTransform="matrix(1.53125,0,0,1.5312505,-82.875,887.817)"
       gradientUnits="userSpaceOnUse" />
    <radialGradient
       inkscape:collect="always"
       xlink:href="#linearGradient1685"
       id="radialGradient21498"
       cx="156"
       cy="76.111115"
       fx="156"
       fy="76.111115"
       r="16"
       gradientTransform="matrix(1.53125,0,0,1.5312505,-82.875,887.817)"
       gradientUnits="userSpaceOnUse" />
    <radialGradient
       inkscape:collect="always"
       xlink:href="#linearGradient1685"
       id="radialGradient21526"
       gradientUnits="userSpaceOnUse"
       gradientTransform="matrix(1.53125,0,0,1.5312505,-82.875,887.817)"
       cx="156"
       cy="76.111115"
       fx="156"
       fy="76.111115"
       r="16" />
  </defs>
  <sodipodi:namedview
     id="base"
     pagecolor="#ffffff"
     bordercolor="#666666"
     borderopacity="1.0"
     inkscape:pageopacity="0.0"
     inkscape:pageshadow="2"
     inkscape:zoom="5.0890118"
     inkscape:cx="53.055487"
     inkscape:cy="60.915559"
     inkscape:document-units="px"
     inkscape:current-layer="layer1"
     showgrid="true"
     inkscape:window-width="2560"
     inkscape:window-height="1352"
     inkscape:window-x="0"
     inkscape:window-y="0"
     inkscape:window-maximized="1"
     inkscape:pagecheckerboard="0"
     inkscape:snap-bbox="true"
     inkscape:bbox-nodes="true"
     inkscape:bbox-paths="true"
     inkscape:snap-bbox-midpoints="true"
     inkscape:snap-object-midpoints="true"
     inkscape:snap-center="true">
    <inkscape:grid
       type="xygrid"
       id="grid3000"
       empspacing="4"
       visible="true"
       enabled="true"
       snapvisiblegridlinesonly="true" />
  </sodipodi:namedview>
  <metadata
     id="metadata7">
    <rdf:RDF>
      <cc:Work
         rdf:about="">
        <dc:format>image/svg+xml</dc:format>
        <dc:type
           rdf:resource="http://purl.org/dc/dcmitype/StillImage" />
      </cc:Work>
    </rdf:RDF>
  </metadata>
  <g
     inkscape:label="Ebene 1"
     inkscape:groupmode="layer"
     id="layer1"
     transform="translate(0,-924.36218)">
    <g
       id="g20662">
      <path
         style="fill:#474747;fill-opacity:1;stroke:none"
         d="m 144,1037.3622 v 1 6 h 16 v -6 h -12 v -1 z"
         id="back16" />
      <rect
         style="fill:#ffffff;fill-opacity:1;stroke:none"
         id="paper16"
         width="14"
         height="5"
         x="145"
         y="1039.3622" />
      <path
         style="fill:#b7b7b7;fill-opacity:1;stroke:none"
         d="m 148,1041.3622 v 1 h -4 v 8 h 16 v -9 z"
         id="front16" />
    </g>
    <g
       id="g20651">
      <path
         id="back"
         d="m 4.0000017,936.36217 c -2.2159999,0 -3.9999999,1.784 -3.9999999,4 v 8 88.00003 c 0,2.216 1.784,4 3.9999999,4 H 124 c 2.216,0 4,-1.784 4,-4 v -88.00003 c 0,-2.216 -1.784,-4 -4,-4 H 53.333334 c -10.666667,0 -10.666667,-8 -21.333333,-8 z"
         style="fill:url(#radialGradient9700);fill-opacity:1;stroke:none;stroke-width:0.416667;stroke-miterlimit:4;stroke-dasharray:none"
         inkscape:connector-curvature="0" />
      <rect
         style="fill:#ffffff;fill-opacity:0.8;stroke:none;stroke-width:0.416667;stroke-miterlimit:4;stroke-dasharray:none"
         id="paperB"
         width="108"
         height="76"
         x="12"
         y="952.36218"
         rx="3.9999986"
         ry="3.9999986" />
      <rect
         style="fill:#ffffff;fill-opacity:0.8;stroke:none;stroke-width:0.416667;stroke-miterlimit:4;stroke-dasharray:none"
         id="paperA"
         width="108"
         height="76"
         x="8"
         y="956.36218"
         rx="3.9999986"
         ry="3.9999986" />
      <path
         id="path4255"
         d="m 56,964.36217 c -7.999997,0 -8.000001,8 -15.999999,8 H 25.333334 22.666668 4.0000017 c -2.2159999,0 -3.9999999,1.784 -3.9999999,4 v 6.66666 4 49.33337 c 0,2.2159 1.784,4 3.9999999,4 H 124 c 2.216,0 4,-1.7841 4,-4 v -68.00003 c 0,-2.216 -1.784,-4 -4,-4 z"
         style="opacity:0.5;fill:#000000;fill-opacity:1;stroke:none;stroke-width:0.416667;stroke-miterlimit:4;stroke-dasharray:none;filter:url(#filter4275)"
         inkscape:connector-curvature="0"
         clip-path="url(#clipPath4405-3)" />
      <path
         id="front"
         d="m 56,964.36217 c -7.999997,0 -8.000001,8 -15.999999,8 H 25.333334 22.666668 4.0000017 c -2.2159999,0 -3.9999999,1.784 -3.9999999,4 v 6.66666 4 49.33337 c 0,2.2159 1.784,4 3.9999999,4 H 124 c 2.216,0 4,-1.7841 4,-4 v -68.00003 c 0,-2.216 -1.784,-4 -4,-4 z"
         style="fill:url(#radialGradient2626);fill-opacity:1;stroke:none;stroke-width:0.416667;stroke-miterlimit:4;stroke-dasharray:none"
         inkscape:connector-curvature="0" />
    </g>
    <g
       id="g21293">
      <path
         style="fill:url(#radialGradient10223);fill-opacity:1"
         d="m 145,992.36218 c -0.554,0 -1,0.446 -1,1 v 2.39062 0.60938 20.60942 c 0,0.7707 0.61985,1.3906 1.39062,1.3906 h 29.21876 c 0.77077,0 1.39062,-0.6199 1.39062,-1.3906 v -21.2188 c 0,-0.77077 -0.61985,-1.39062 -1.39062,-1.39062 H 154 c -2,0 -2,-2 -4,-2 h -2 z"
         id="back31"
         sodipodi:nodetypes="ssccsssssssscs" />
      <rect
         style="fill:#eeeeec;fill-opacity:0.8;stroke:none"
         id="paperB31"
         width="27"
         height="18.999998"
         x="147"
         y="996.36218"
         rx="0.99999738"
         ry="0.99999738" />
      <rect
         style="fill:#ffffff;fill-opacity:0.8;stroke:none"
         id="paperA31"
         width="27"
         height="18.999998"
         x="146"
         y="997.36218"
         rx="0.99999738"
         ry="0.99999738" />
      <path
         style="color:#000000;opacity:0.25;fill:url(#radialGradient20975);stroke-width:2;-inkscape-stroke:none"
         d="m 156,1000.3622 c -2,0 -2,2 -4,2 h -1 -5.60938 c -0.77077,0 -1.39062,0.6198 -1.39062,1.3906 v 1.5469 0.6719 11 c 0,0.7707 0.61986,1.3906 1.39062,1.3906 h 29.21876 c 0.77076,0 1.39062,-0.6199 1.39062,-1.3906 v -15.2188 c 0,-0.7708 -0.61986,-1.3906 -1.39062,-1.3906 z"
         id="path20744" />
      <path
         id="path20746"
         style="color:#000000;opacity:0.2;fill:#000000;-inkscape-stroke:none"
         d="m 156,75 c -1.33333,0 -2.20703,0.792969 -2.70703,1.292969 C 152.79297,76.792969 152.66667,77 152,77 h -1 -5.60938 C 144.87398,77 144.39374,77.169488 144,77.455078 V 80 h 1 V 79.390625 C 145,79.155925 145.15594,79 145.39062,79 H 151 h 1 c 1.33333,0 2.20703,-0.792969 2.70703,-1.292969 C 155.20703,77.207031 155.33333,77 156,77 h 18.60938 C 174.84404,77 175,77.155925 175,77.390625 V 80 h 1 V 75.457031 C 175.60626,75.171456 175.12602,75 174.60938,75 Z"
         transform="translate(0,924.36218)" />
      <path
         style="fill:url(#radialGradient21526);fill-opacity:1"
         d="m 156,1000.3622 c -2,0 -2,2 -4,2 h -1 -5.60938 c -0.77077,0 -1.39062,0.6198 -1.39062,1.3906 v 1.5469 0.6719 11 c 0,0.7707 0.61986,1.3906 1.39062,1.3906 h 29.21876 c 0.77076,0 1.39062,-0.6199 1.39062,-1.3906 v -15.2188 c 0,-0.7708 -0.61986,-1.3906 -1.39062,-1.3906 z"
         id="front31"
         inkscape:connector-curvature="0"
         sodipodi:nodetypes="sscssccsssssss" />
      <path
         style="fill:url(#radialGradient4484);fill-opacity:1"
         d="m 156,1000.3622 c -2,0 -2,2 -4,2 h -1 -5.60938 c -0.77077,0 -1.39062,0.6198 -1.39062,1.3906 v 1.5469 0.6719 11 c 0,0.7707 0.61986,1.3906 1.39062,1.3906 h 29.21876 c 0.77076,0 1.39062,-0.6199 1.39062,-1.3906 v -15.2188 c 0,-0.7708 -0.61986,-1.3906 -1.39062,-1.3906 z"
         id="path20748"
         inkscape:connector-curvature="0"
         sodipodi:nodetypes="sscssccsssssss" />
    </g>
    <path
       id="path2675"
       style="opacity:0.25;fill:#000000;stroke:none;stroke-width:2;stroke-linecap:round;stroke-linejoin:round;fill-opacity:1"
       d="M 159 80 L 159 80.841797 C 158.55932 80.948569 158.14583 81.123353 157.76953 81.355469 L 157.17188 80.757812 L 156.96875 80.960938 L 156.9668 80.960938 L 155.96094 81.966797 L 155.96094 81.96875 L 155.75781 82.171875 L 156.35352 82.767578 C 156.12023 83.144295 155.94353 83.558722 155.83594 84 L 155 84 L 155 84.285156 L 155 85.714844 L 155 86 L 155.83594 86 C 155.94278 86.442008 156.11895 86.856832 156.35156 87.234375 L 155.75781 87.828125 L 155.96094 88.03125 L 155.96094 88.033203 L 156.96875 89.039062 L 157.17188 89.242188 L 157.76562 88.648438 C 158.14309 88.881484 158.55768 89.057226 159 89.164062 L 159 90 L 159.28516 90 L 160.71484 90 L 161 90 L 161 89.164062 C 161.44231 89.057226 161.85691 88.881483 162.23438 88.648438 L 162.82812 89.242188 L 163.03125 89.039062 L 163.0332 89.039062 L 164.03906 88.03125 L 164.24219 87.828125 L 163.64844 87.234375 C 163.88105 86.856832 164.05722 86.442008 164.16406 86 L 165 86 L 165 85.714844 L 165 84.285156 L 165 84 L 164.16406 84 C 164.05647 83.558722 163.87977 83.144295 163.64648 82.767578 L 164.24219 82.171875 L 164.03906 81.96875 L 163.0332 80.960938 L 163.03125 80.960938 L 162.82812 80.757812 L 162.23047 81.355469 C 161.85417 81.123353 161.44067 80.948569 161 80.841797 L 161 80 L 160.71484 80 L 159.28516 80 L 159 80 z M 160 84 A 1 1 0 0 1 161 85 A 1 1 0 0 1 160 86 A 1 1 0 0 1 159 85 A 1 1 0 0 1 160 84 z "
       transform="translate(0,924.36218)" />
    <text
       style="font-style:normal;font-weight:normal;font-size:24px;line-height:0%;font-family:sans-serif;letter-spacing:0px;word-spacing:0px;fill:#000000;fill-opacity:1;stroke:none"
       xml:space="preserve"
       id="text5893-3"
       y="948.36218"
       x="-56"><tspan
         id="tspan5895-8"
         y="948.36218"
         x="-56"
         style="font-family:sans-serif">128</tspan></text>
    <text
       style="font-style:normal;font-weight:normal;font-size:16px;line-height:0%;font-family:sans-serif;letter-spacing:0px;word-spacing:0px;fill:#000000;fill-opacity:1;stroke:none"
       xml:space="preserve"
       id="text5901"
       y="1000.3622"
       x="184"><tspan
         id="tspan5903"
         y="1000.3622"
         x="184"
         style="font-family:sans-serif">31 - 17</tspan></text>
    <text
       style="font-style:normal;font-weight:normal;font-size:16px;line-height:0%;font-family:sans-serif;letter-spacing:0px;word-spacing:0px;fill:#000000;fill-opacity:1;stroke:none"
       xml:space="preserve"
       id="text5905"
       y="1048.3622"
       x="172"><tspan
         id="tspan5907"
         y="1048.3622"
         x="172"
         style="font-family:sans-serif">16</tspan></text>
    <rect
       style="fill:none;stroke:#000000;stroke-width:1;stroke-linecap:round;stroke-linejoin:round;stroke-miterlimit:4;stroke-dasharray:none;stroke-dashoffset:0;stroke-opacity:1"
       id="rect5919"
       y="984.36218"
       x="140"
       rx="4.5902016e-07"
       height="40"
       width="40" />
    <rect
       style="fill:none;stroke:#000000;stroke-width:1;stroke-linecap:round;stroke-linejoin:round;stroke-miterlimit:4;stroke-dasharray:none;stroke-dashoffset:0;stroke-opacity:1"
       id="rect5921"
       y="1032.3622"
       x="140"
       rx="4.5902016e-07"
       height="24"
       width="24" />
    <rect
       style="fill:#b3b3b3;fill-opacity:1;stroke:none"
       id="rect6935"
       y="980.36218"
       x="144"
       rx="4.5902016e-07"
       height="4"
       width="32" />
    <rect
       style="fill:#b3b3b3;fill-opacity:1;stroke:none"
       id="rect6937"
       y="988.36218"
       x="136"
       rx="4.5902016e-07"
       height="32"
       width="4" />
    <rect
       style="fill:#b3b3b3;fill-opacity:1;stroke:none"
       id="rect6939"
       y="1028.3622"
       x="144"
       rx="4.5902016e-07"
       height="4"
       width="16" />
    <rect
       style="fill:#b3b3b3;fill-opacity:1;stroke:none"
       id="rect6941"
       y="1036.3622"
       x="136"
       rx="4.5902016e-07"
       height="16"
       width="4" />
    <path
       style="opacity:0.25;fill:#000000;stroke:none"
       d="M 152 119 L 151 120 L 150 120 L 150 121 L 149 122 L 150 123 L 150 124 L 151 124 L 152 125 L 153 124 L 154 124 L 154 123 L 155 122 L 154 121 L 154 120 L 153 120 L 152 119 z M 152 121 A 1 1 0 0 1 153 122 A 1 1 0 0 1 152 123 A 1 1 0 0 1 151 122 A 1 1 0 0 1 152 121 z "
       transform="translate(0,924.36218)"
       id="path3718" />
    <g
       id="g1450"
       transform="translate(0,-3.9999974)">
      <path
         id="path1604"
         style="opacity:1;fill:#ffffff;stroke:none;stroke-width:2;stroke-linecap:round;stroke-linejoin:round"
         d="m 60,60 v 2.529297 a 18,18 0 0 0 -5.517578,2.294922 l -1.796875,-1.794922 -0.707031,0.707031 -4.242188,4.242188 -0.707031,0.707031 1.794922,1.796875 A 18,18 0 0 0 46.529297,76 H 44 v 1 6 1 h 2.529297 a 18,18 0 0 0 2.294922,5.517578 l -1.794922,1.796875 0.707031,0.707031 4.242188,4.242188 0.707031,0.707031 1.796875,-1.794922 A 18,18 0 0 0 60,97.470703 V 100 h 1 6 1 v -2.529297 a 18,18 0 0 0 5.517578,-2.294922 l 1.796875,1.794922 0.707031,-0.707031 4.242188,-4.242188 0.707031,-0.707031 -1.794922,-1.796875 A 18,18 0 0 0 81.470703,84 H 84 v -1 -6 -1 h -2.505859 a 18,18 0 0 0 -2.294922,-5.542969 l 1.771484,-1.771484 -0.707031,-0.707031 -4.242188,-4.242188 -0.707031,-0.707031 -1.771484,1.769531 A 18,18 0 0 0 68,62.505859 V 60 h -1 -6 z m 4,17 a 3,3 0 0 1 3,3 3,3 0 0 1 -3,3 3,3 0 0 1 -3,-3 3,3 0 0 1 3,-3 z"
         transform="translate(0,924.36218)" />
      <path
         id="path1219"
         style="color:#000000;opacity:0.25;fill:#000000;stroke-linecap:round;-inkscape-stroke:none"
         d="m 60,60 v 2.529297 a 18,18 0 0 0 -5.517578,2.294922 l -1.796875,-1.794922 -0.707031,0.707031 -4.242188,4.242188 -0.707031,0.707031 1.794922,1.796875 A 18,18 0 0 0 46.529297,76 H 44 v 1 6 1 h 2.529297 a 18,18 0 0 0 2.294922,5.517578 l -1.794922,1.796875 0.707031,0.707031 4.242188,4.242188 0.707031,0.707031 1.796875,-1.794922 A 18,18 0 0 0 60,97.470703 V 100 h 1 6 1 v -2.529297 a 18,18 0 0 0 5.517578,-2.294922 l 1.796875,1.794922 0.707031,-0.707031 4.242188,-4.242188 0.707031,-0.707031 -1.794922,-1.796875 A 18,18 0 0 0 81.470703,84 H 84 v -1 -6 -1 h -2.505859 a 18,18 0 0 0 -2.294922,-5.542969 l 1.771484,-1.771484 -0.707031,-0.707031 -4.242188,-4.242188 -0.707031,-0.707031 -1.771484,1.769531 A 18,18 0 0 0 68,62.505859 V 60 h -1 -6 z m 2,2 h 4 v 2.099609 l 1.554688,0.355469 c 1.744811,0.39903 3.408974,1.088853 4.925781,2.039063 l 1.349609,0.84375 1.484375,-1.480469 2.828125,2.828125 -1.484375,1.484375 0.845703,1.349609 c 0.950815,1.51669 1.641445,3.182865 2.041016,4.927735 L 79.900391,78 H 82 v 4 h -2.119141 l -0.359375,1.548828 c -0.401959,1.7371 -1.09056,3.394497 -2.039062,4.904297 l -0.847656,1.349609 1.507812,1.511719 -2.828125,2.828125 -1.511719,-1.507812 -1.349609,0.847656 c -1.509765,0.9485 -3.167209,1.637062 -4.904297,2.039062 L 66,95.880859 V 98 h -4 v -2.119141 l -1.548828,-0.359375 c -1.737088,-0.402 -3.394532,-1.090562 -4.904297,-2.039062 l -1.349609,-0.847656 -1.511719,1.507812 -2.828125,-2.828125 1.507812,-1.511719 -0.847656,-1.349609 c -0.948502,-1.5098 -1.637103,-3.167197 -2.039062,-4.904297 L 48.119141,82 H 46 v -4 h 2.119141 l 0.359375,-1.548828 c 0.401959,-1.73714 1.09056,-3.394527 2.039062,-4.904297 l 0.847656,-1.349609 -1.507812,-1.511719 2.828125,-2.828125 1.511719,1.507812 1.349609,-0.847656 c 1.509765,-0.9485 3.167209,-1.637102 4.904297,-2.039062 L 62,64.119141 Z m 2,13 c -2.737732,0 -5,2.2622 -5,5 0,2.7377 2.262268,5 5,5 2.737732,0 5,-2.2623 5,-5 0,-2.7378 -2.262268,-5 -5,-5 z m 0,2 a 3,3 0 0 1 3,3 3,3 0 0 1 -3,3 3,3 0 0 1 -3,-3 3,3 0 0 1 3,-3 z"
         transform="translate(0,924.36218)" />
    </g>
  </g>
</svg>
