<?xml version="1.0" encoding="UTF-8" standalone="no"?>
<!-- Created with Inkscape (http://www.inkscape.org/) -->

<svg
   width="128"
   height="128"
   id="svg2"
   version="1.1"
   inkscape:version="1.1.1 (3bf5ae0d25, 2021-09-20)"
   sodipodi:docname="folder-publicshare.svg"
   xmlns:inkscape="http://www.inkscape.org/namespaces/inkscape"
   xmlns:sodipodi="http://sodipodi.sourceforge.net/DTD/sodipodi-0.dtd"
   xmlns:xlink="http://www.w3.org/1999/xlink"
   xmlns="http://www.w3.org/2000/svg"
   xmlns:svg="http://www.w3.org/2000/svg"
   xmlns:rdf="http://www.w3.org/1999/02/22-rdf-syntax-ns#"
   xmlns:cc="http://creativecommons.org/ns#"
   xmlns:dc="http://purl.org/dc/elements/1.1/">
  <defs
     id="defs4">
    <inkscape:perspective
       sodipodi:type="inkscape:persp3d"
       inkscape:vp_x="0 : 64 : 1"
       inkscape:vp_y="0 : 1000 : 0"
       inkscape:vp_z="128 : 64 : 1"
       inkscape:persp3d-origin="64 : 42.666667 : 1"
       id="perspective8890" />
    <linearGradient
       id="linearGradient3785-6">
      <stop
         style="stop-color:#ffffff;stop-opacity:1;"
         offset="0"
         id="stop3787-4" />
      <stop
         style="stop-color:#d6d6d6;stop-opacity:1;"
         offset="1"
         id="stop3789-3" />
    </linearGradient>
    <linearGradient
       id="linearGradient3802-3">
      <stop
         style="stop-color:#ffc475;stop-opacity:1;"
         offset="0"
         id="stop3804-4" />
      <stop
         style="stop-color:#ff004a;stop-opacity:1;"
         offset="1"
         id="stop3806-1" />
    </linearGradient>
    <radialGradient
       inkscape:collect="always"
       xlink:href="#linearGradient3802-3"
       id="radialGradient3852"
       cx="153.60025"
       cy="1046.2241"
       fx="153.60025"
       fy="1046.2241"
       r="7.5"
       gradientTransform="matrix(1.6666654,-3.5764157e-7,3.5147543e-7,1.5999884,-101.0006,-626.5843)"
       gradientUnits="userSpaceOnUse" />
    <linearGradient
       id="linearGradient3802-3-5">
      <stop
         style="stop-color:#ffc475;stop-opacity:1;"
         offset="0"
         id="stop3804-4-7" />
      <stop
         style="stop-color:#ff004a;stop-opacity:1;"
         offset="1"
         id="stop3806-1-0" />
    </linearGradient>
    <linearGradient
       id="linearGradient3785-0-1">
      <stop
         style="stop-color:#ffffff;stop-opacity:1;"
         offset="0"
         id="stop3787-7-8" />
      <stop
         style="stop-color:#d6d6d6;stop-opacity:1;"
         offset="1"
         id="stop3789-1-7" />
    </linearGradient>
    <clipPath
       clipPathUnits="userSpaceOnUse"
       id="clipPath4405">
      <path
         id="path4407"
         style="opacity:0.8;fill:#888a85;fill-opacity:1;stroke:none;stroke-width:0.416667;stroke-miterlimit:4;stroke-dasharray:none"
         d="m 4,936.36218 c -2.2159999,0 -4,1.784 -4,4 v 8 28 c 0,-2.216 1.7840001,-4 4,-4 H 22.666016 25.333984 40 c 7.999998,0 8.000003,-8 16,-8 h 68 c 2.216,0 4,1.784 4,4 v -20 c 0,-2.216 -1.784,-4 -4,-4 H 53.333984 c -10.666667,0 -10.667318,-8 -21.333984,-8 z" />
    </clipPath>
    <clipPath
       clipPathUnits="userSpaceOnUse"
       id="clipPath2684">
      <path
         id="path2686"
         style="opacity:0.5;fill:#ffffff;stroke:none;stroke-width:2;stroke-linecap:round;stroke-linejoin:round"
         d="m 71,60 a 6,6 0 0 0 -6,6 6,6 0 0 0 0.210938,1.546875 l -6.658204,6.658203 A 6,6 0 0 0 57,74 a 6,6 0 0 0 -6,6 6,6 0 0 0 6,6 6,6 0 0 0 1.546875,-0.210938 l 6.664063,6.666016 A 6,6 0 0 0 65,94 a 6,6 0 0 0 6,6 6,6 0 0 0 6,-6 6,6 0 0 0 -6,-6 6,6 0 0 0 -1.546875,0.210938 L 62.789062,81.546875 A 6,6 0 0 0 63,80 6,6 0 0 0 62.794922,78.447266 l 6.660156,-6.658204 A 6,6 0 0 0 71,72 6,6 0 0 0 77,66 6,6 0 0 0 71,60 Z" />
    </clipPath>
    <radialGradient
       inkscape:collect="always"
       xlink:href="#linearGradient4216-42-6"
       id="radialGradient9700"
       cx="52"
       cy="968.66986"
       fx="52"
       fy="968.66986"
       r="64"
       gradientTransform="matrix(1,0,0,0.81250025,0,185.31767)"
       gradientUnits="userSpaceOnUse" />
    <linearGradient
       id="linearGradient4216-42-6">
      <stop
         style="stop-color:#b3b3b3;stop-opacity:1;"
         offset="0"
         id="stop4218-69-8" />
      <stop
         style="stop-color:#474747;stop-opacity:1;"
         offset="1"
         id="stop4220-10-1" />
    </linearGradient>
    <clipPath
       clipPathUnits="userSpaceOnUse"
       id="clipPath4405-3">
      <path
         id="path4407-6"
         style="opacity:0.8;fill:#888a85;fill-opacity:1;stroke:none;stroke-width:0.416667;stroke-miterlimit:4;stroke-dasharray:none"
         d="m 4,936.36218 c -2.2159999,0 -4,1.784 -4,4 v 8 28 c 0,-2.216 1.7840001,-4 4,-4 H 22.666016 25.333984 40 c 7.999998,0 8.000003,-8 16,-8 h 68 c 2.216,0 4,1.784 4,4 v -20 c 0,-2.216 -1.784,-4 -4,-4 H 53.333984 c -10.666667,0 -10.667318,-8 -21.333984,-8 z" />
    </clipPath>
    <filter
       inkscape:collect="always"
       style="color-interpolation-filters:sRGB"
       id="filter4275"
       x="-0.059765635"
       y="-0.10065787"
       width="1.1195313"
       height="1.2013157">
      <feGaussianBlur
         inkscape:collect="always"
         stdDeviation="3.1875004"
         id="feGaussianBlur4277" />
    </filter>
    <radialGradient
       inkscape:collect="always"
       xlink:href="#linearGradient1685"
       id="radialGradient2626"
       cx="72.521233"
       cy="998.11505"
       fx="72.521233"
       fy="998.11505"
       r="64"
       gradientTransform="matrix(1.4375003,0,-2.6475526e-5,1.4375021,-40.222863,-458.43033)"
       gradientUnits="userSpaceOnUse" />
    <linearGradient
       inkscape:collect="always"
       id="linearGradient1685">
      <stop
         style="stop-color:#fdfdfd;stop-opacity:1"
         offset="0"
         id="stop1681" />
      <stop
         style="stop-color:#b4b4b4;stop-opacity:1"
         offset="1"
         id="stop1683" />
    </linearGradient>
    <radialGradient
       inkscape:collect="always"
       xlink:href="#linearGradient4216-42-6"
       id="radialGradient10223"
       cx="156"
       cy="999.20837"
       fx="156"
       fy="999.20837"
       r="16"
       gradientTransform="matrix(1,0,0,0.81250062,0,188.50478)"
       gradientUnits="userSpaceOnUse" />
    <radialGradient
       inkscape:collect="always"
       xlink:href="#linearGradient1685"
       id="radialGradient20975"
       gradientUnits="userSpaceOnUse"
       gradientTransform="matrix(1.53125,0,0,1.5312505,-82.875,887.817)"
       cx="156"
       cy="76.111115"
       fx="156"
       fy="76.111115"
       r="16" />
    <radialGradient
       inkscape:collect="always"
       xlink:href="#linearGradient1685"
       id="radialGradient4484"
       cx="156"
       cy="76.111115"
       fx="156"
       fy="76.111115"
       r="16"
       gradientTransform="matrix(1.53125,0,0,1.5312505,-82.875,887.817)"
       gradientUnits="userSpaceOnUse" />
    <radialGradient
       inkscape:collect="always"
       xlink:href="#linearGradient1685"
       id="radialGradient21498"
       cx="156"
       cy="76.111115"
       fx="156"
       fy="76.111115"
       r="16"
       gradientTransform="matrix(1.53125,0,0,1.5312505,-82.875,887.817)"
       gradientUnits="userSpaceOnUse" />
    <radialGradient
       inkscape:collect="always"
       xlink:href="#linearGradient1685"
       id="radialGradient21526"
       gradientUnits="userSpaceOnUse"
       gradientTransform="matrix(1.53125,0,0,1.5312505,-82.875,887.817)"
       cx="156"
       cy="76.111115"
       fx="156"
       fy="76.111115"
       r="16" />
  </defs>
  <sodipodi:namedview
     id="base"
     pagecolor="#ffffff"
     bordercolor="#666666"
     borderopacity="1.0"
     inkscape:pageopacity="0.0"
     inkscape:pageshadow="2"
     inkscape:zoom="5.0447405"
     inkscape:cx="106.4475"
     inkscape:cy="86.823098"
     inkscape:document-units="px"
     inkscape:current-layer="layer1"
     showgrid="true"
     inkscape:window-width="2560"
     inkscape:window-height="1352"
     inkscape:window-x="0"
     inkscape:window-y="0"
     inkscape:window-maximized="1"
     inkscape:pagecheckerboard="0"
     inkscape:snap-bbox="true"
     inkscape:bbox-paths="true"
     inkscape:bbox-nodes="true"
     inkscape:snap-bbox-midpoints="true">
    <inkscape:grid
       type="xygrid"
       id="grid3000"
       empspacing="4"
       visible="true"
       enabled="true"
       snapvisiblegridlinesonly="true" />
  </sodipodi:namedview>
  <metadata
     id="metadata7">
    <rdf:RDF>
      <cc:Work
         rdf:about="">
        <dc:format>image/svg+xml</dc:format>
        <dc:type
           rdf:resource="http://purl.org/dc/dcmitype/StillImage" />
      </cc:Work>
    </rdf:RDF>
  </metadata>
  <g
     inkscape:label="Ebene 1"
     inkscape:groupmode="layer"
     id="layer1"
     transform="translate(0,-924.36218)">
    <g
       id="g20662">
      <path
         style="fill:#474747;fill-opacity:1;stroke:none"
         d="m 144,1037.3622 v 1 6 h 16 v -6 h -12 v -1 z"
         id="back16" />
      <rect
         style="fill:#ffffff;fill-opacity:1;stroke:none"
         id="paper16"
         width="14"
         height="5"
         x="145"
         y="1039.3622" />
      <path
         style="fill:#b7b7b7;fill-opacity:1;stroke:none"
         d="m 148,1041.3622 v 1 h -4 v 8 h 16 v -9 z"
         id="front16" />
    </g>
    <g
       id="g20651">
      <path
         id="back"
         d="m 4.0000017,936.36217 c -2.2159999,0 -3.9999999,1.784 -3.9999999,4 v 8 88.00003 c 0,2.216 1.784,4 3.9999999,4 H 124 c 2.216,0 4,-1.784 4,-4 v -88.00003 c 0,-2.216 -1.784,-4 -4,-4 H 53.333334 c -10.666667,0 -10.666667,-8 -21.333333,-8 z"
         style="fill:url(#radialGradient9700);fill-opacity:1;stroke:none;stroke-width:0.416667;stroke-miterlimit:4;stroke-dasharray:none"
         inkscape:connector-curvature="0" />
      <rect
         style="fill:#ffffff;fill-opacity:0.8;stroke:none;stroke-width:0.416667;stroke-miterlimit:4;stroke-dasharray:none"
         id="paperB"
         width="108"
         height="76"
         x="12"
         y="952.36218"
         rx="3.9999986"
         ry="3.9999986" />
      <rect
         style="fill:#ffffff;fill-opacity:0.8;stroke:none;stroke-width:0.416667;stroke-miterlimit:4;stroke-dasharray:none"
         id="paperA"
         width="108"
         height="76"
         x="8"
         y="956.36218"
         rx="3.9999986"
         ry="3.9999986" />
      <path
         id="path4255"
         d="m 56,964.36217 c -7.999997,0 -8.000001,8 -15.999999,8 H 25.333334 22.666668 4.0000017 c -2.2159999,0 -3.9999999,1.784 -3.9999999,4 v 6.66666 4 49.33337 c 0,2.2159 1.784,4 3.9999999,4 H 124 c 2.216,0 4,-1.7841 4,-4 v -68.00003 c 0,-2.216 -1.784,-4 -4,-4 z"
         style="opacity:0.5;fill:#000000;fill-opacity:1;stroke:none;stroke-width:0.416667;stroke-miterlimit:4;stroke-dasharray:none;filter:url(#filter4275)"
         inkscape:connector-curvature="0"
         clip-path="url(#clipPath4405-3)" />
      <path
         id="front"
         d="m 56,964.36217 c -7.999997,0 -8.000001,8 -15.999999,8 H 25.333334 22.666668 4.0000017 c -2.2159999,0 -3.9999999,1.784 -3.9999999,4 v 6.66666 4 49.33337 c 0,2.2159 1.784,4 3.9999999,4 H 124 c 2.216,0 4,-1.7841 4,-4 v -68.00003 c 0,-2.216 -1.784,-4 -4,-4 z"
         style="fill:url(#radialGradient2626);fill-opacity:1;stroke:none;stroke-width:0.416667;stroke-miterlimit:4;stroke-dasharray:none"
         inkscape:connector-curvature="0" />
    </g>
    <g
       id="g21293">
      <path
         style="fill:url(#radialGradient10223);fill-opacity:1"
         d="m 145,992.36218 c -0.554,0 -1,0.446 -1,1 v 2.39062 0.60938 20.60942 c 0,0.7707 0.61985,1.3906 1.39062,1.3906 h 29.21876 c 0.77077,0 1.39062,-0.6199 1.39062,-1.3906 v -21.2188 c 0,-0.77077 -0.61985,-1.39062 -1.39062,-1.39062 H 154 c -2,0 -2,-2 -4,-2 h -2 z"
         id="back31"
         sodipodi:nodetypes="ssccsssssssscs" />
      <rect
         style="fill:#eeeeec;fill-opacity:0.8;stroke:none"
         id="paperB31"
         width="27"
         height="18.999998"
         x="147"
         y="996.36218"
         rx="0.99999738"
         ry="0.99999738" />
      <rect
         style="fill:#ffffff;fill-opacity:0.8;stroke:none"
         id="paperA31"
         width="27"
         height="18.999998"
         x="146"
         y="997.36218"
         rx="0.99999738"
         ry="0.99999738" />
      <path
         style="color:#000000;opacity:0.25;fill:url(#radialGradient20975);stroke-width:2;-inkscape-stroke:none"
         d="m 156,1000.3622 c -2,0 -2,2 -4,2 h -1 -5.60938 c -0.77077,0 -1.39062,0.6198 -1.39062,1.3906 v 1.5469 0.6719 11 c 0,0.7707 0.61986,1.3906 1.39062,1.3906 h 29.21876 c 0.77076,0 1.39062,-0.6199 1.39062,-1.3906 v -15.2188 c 0,-0.7708 -0.61986,-1.3906 -1.39062,-1.3906 z"
         id="path20744" />
      <path
         id="path20746"
         style="color:#000000;opacity:0.2;fill:#000000;-inkscape-stroke:none"
         d="m 156,75 c -1.33333,0 -2.20703,0.792969 -2.70703,1.292969 C 152.79297,76.792969 152.66667,77 152,77 h -1 -5.60938 C 144.87398,77 144.39374,77.169488 144,77.455078 V 80 h 1 V 79.390625 C 145,79.155925 145.15594,79 145.39062,79 H 151 h 1 c 1.33333,0 2.20703,-0.792969 2.70703,-1.292969 C 155.20703,77.207031 155.33333,77 156,77 h 18.60938 C 174.84404,77 175,77.155925 175,77.390625 V 80 h 1 V 75.457031 C 175.60626,75.171456 175.12602,75 174.60938,75 Z"
         transform="translate(0,924.36218)" />
      <path
         style="fill:url(#radialGradient21526);fill-opacity:1"
         d="m 156,1000.3622 c -2,0 -2,2 -4,2 h -1 -5.60938 c -0.77077,0 -1.39062,0.6198 -1.39062,1.3906 v 1.5469 0.6719 11 c 0,0.7707 0.61986,1.3906 1.39062,1.3906 h 29.21876 c 0.77076,0 1.39062,-0.6199 1.39062,-1.3906 v -15.2188 c 0,-0.7708 -0.61986,-1.3906 -1.39062,-1.3906 z"
         id="front31"
         inkscape:connector-curvature="0"
         sodipodi:nodetypes="sscssccsssssss" />
      <path
         style="fill:url(#radialGradient4484);fill-opacity:1"
         d="m 156,1000.3622 c -2,0 -2,2 -4,2 h -1 -5.60938 c -0.77077,0 -1.39062,0.6198 -1.39062,1.3906 v 1.5469 0.6719 11 c 0,0.7707 0.61986,1.3906 1.39062,1.3906 h 29.21876 c 0.77076,0 1.39062,-0.6199 1.39062,-1.3906 v -15.2188 c 0,-0.7708 -0.61986,-1.3906 -1.39062,-1.3906 z"
         id="path20748"
         inkscape:connector-curvature="0"
         sodipodi:nodetypes="sscssccsssssss" />
    </g>
    <text
       style="font-style:normal;font-weight:normal;font-size:24px;line-height:0%;font-family:sans-serif;letter-spacing:0px;word-spacing:0px;fill:#000000;fill-opacity:1;stroke:none"
       xml:space="preserve"
       id="text5893-3"
       y="948.36218"
       x="-56"><tspan
         id="tspan5895-8"
         y="948.36218"
         x="-56"
         style="font-family:sans-serif">128</tspan></text>
    <text
       style="font-style:normal;font-weight:normal;font-size:16px;line-height:0%;font-family:sans-serif;letter-spacing:0px;word-spacing:0px;fill:#000000;fill-opacity:1;stroke:none"
       xml:space="preserve"
       id="text5901"
       y="1000.3622"
       x="184"><tspan
         id="tspan5903"
         y="1000.3622"
         x="184"
         style="font-family:sans-serif">31 - 17</tspan></text>
    <text
       style="font-style:normal;font-weight:normal;font-size:16px;line-height:0%;font-family:sans-serif;letter-spacing:0px;word-spacing:0px;fill:#000000;fill-opacity:1;stroke:none"
       xml:space="preserve"
       id="text5905"
       y="1048.3622"
       x="172"><tspan
         id="tspan5907"
         y="1048.3622"
         x="172"
         style="font-family:sans-serif">16</tspan></text>
    <rect
       style="fill:none;stroke:#000000;stroke-width:1;stroke-linecap:round;stroke-linejoin:round;stroke-miterlimit:4;stroke-dasharray:none;stroke-dashoffset:0;stroke-opacity:1"
       id="rect5919"
       y="984.36218"
       x="140"
       rx="4.5902016e-07"
       height="40"
       width="40" />
    <rect
       style="fill:none;stroke:#000000;stroke-width:1;stroke-linecap:round;stroke-linejoin:round;stroke-miterlimit:4;stroke-dasharray:none;stroke-dashoffset:0;stroke-opacity:1"
       id="rect5921"
       y="1032.3622"
       x="140"
       rx="4.5902016e-07"
       height="24"
       width="24" />
    <rect
       style="fill:#b3b3b3;fill-opacity:1;stroke:none"
       id="rect6935"
       y="980.36218"
       x="144"
       rx="4.5902016e-07"
       height="4"
       width="32" />
    <rect
       style="fill:#b3b3b3;fill-opacity:1;stroke:none"
       id="rect6937"
       y="988.36218"
       x="136"
       rx="4.5902016e-07"
       height="32"
       width="4" />
    <rect
       style="fill:#b3b3b3;fill-opacity:1;stroke:none"
       id="rect6939"
       y="1028.3622"
       x="144"
       rx="4.5902016e-07"
       height="4"
       width="16" />
    <rect
       style="fill:#b3b3b3;fill-opacity:1;stroke:none"
       id="rect6941"
       y="1036.3622"
       x="136"
       rx="4.5902016e-07"
       height="16"
       width="4" />
    <path
       id="path1918"
       style="opacity:1;fill:#ffffff;stroke:none;stroke-width:2;stroke-linecap:round;stroke-linejoin:round"
       d="m 71,980.36218 a 6,6 0 0 0 -6,6 6,6 0 0 0 0.210938,1.54688 l -6.658204,6.6582 A 6,6 0 0 0 57,994.36218 a 6,6 0 0 0 -6,6.00002 6,6 0 0 0 6,6 6,6 0 0 0 1.546875,-0.2109 l 6.664063,6.666 A 6,6 0 0 0 65,1014.3622 a 6,6 0 0 0 6,6 6,6 0 0 0 6,-6 6,6 0 0 0 -6,-6 6,6 0 0 0 -1.546875,0.2109 l -6.664063,-6.664 A 6,6 0 0 0 63,1000.3622 6,6 0 0 0 62.794922,998.80945 l 6.660156,-6.6582 A 6,6 0 0 0 71,992.36218 a 6,6 0 0 0 6,-6 6,6 0 0 0 -6,-6 z" />
    <path
       id="path2959"
       style="color:#000000;fill:#000000;-inkscape-stroke:none;opacity:0.25"
       d="M 161.5 80 A 1.5 1.5 0 0 0 160 81.5 A 1.5 1.5 0 0 0 160.14648 82.146484 L 158.64648 83.646484 A 1.5 1.5 0 0 0 158 83.5 A 1.5 1.5 0 0 0 156.5 85 A 1.5 1.5 0 0 0 158 86.5 A 1.5 1.5 0 0 0 158.64648 86.353516 L 160.14648 87.853516 A 1.5 1.5 0 0 0 160 88.5 A 1.5 1.5 0 0 0 161.5 90 A 1.5 1.5 0 0 0 163 88.5 A 1.5 1.5 0 0 0 161.5 87 A 1.5 1.5 0 0 0 160.85352 87.146484 L 159.35352 85.646484 A 1.5 1.5 0 0 0 159.5 85 A 1.5 1.5 0 0 0 159.35352 84.353516 L 160.85352 82.853516 A 1.5 1.5 0 0 0 161.5 83 A 1.5 1.5 0 0 0 163 81.5 A 1.5 1.5 0 0 0 161.5 80 z "
       transform="translate(0,924.36218)" />
    <path
       id="path3365"
       style="opacity:0.25;fill:#000000;stroke:none;stroke-width:2;stroke-linecap:round;stroke-linejoin:bevel;stroke-miterlimit:4;stroke-dasharray:none"
       d="M 153 119 A 1 1 0 0 0 152 120 A 1 1 0 0 0 152.03516 120.25781 L 151.25977 121.0332 A 1 1 0 0 0 151 121 A 1 1 0 0 0 150 122 A 1 1 0 0 0 151 123 A 1 1 0 0 0 151.25781 122.96484 L 152.03516 123.74219 A 1 1 0 0 0 152 124 A 1 1 0 0 0 153 125 A 1 1 0 0 0 154 124 A 1 1 0 0 0 153 123 A 1 1 0 0 0 152.74219 123.03516 L 151.96484 122.25781 A 1 1 0 0 0 152 122 A 1 1 0 0 0 151.9668 121.74023 L 152.74219 120.96484 A 1 1 0 0 0 153 121 A 1 1 0 0 0 154 120 A 1 1 0 0 0 153 119 z "
       transform="translate(0,924.36218)" />
    <path
       id="path1012"
       style="color:#000000;fill:#000000;stroke-linecap:round;-inkscape-stroke:none;opacity:0.25"
       d="M 71 56 A 6 6 0 0 0 65 62 A 6 6 0 0 0 65.210938 63.546875 L 58.552734 70.205078 A 6 6 0 0 0 57 70 A 6 6 0 0 0 51 76 A 6 6 0 0 0 57 82 A 6 6 0 0 0 58.546875 81.789062 L 65.210938 88.455078 A 6 6 0 0 0 65 90 A 6 6 0 0 0 71 96 A 6 6 0 0 0 77 90 A 6 6 0 0 0 71 84 A 6 6 0 0 0 69.453125 84.210938 L 62.789062 77.546875 A 6 6 0 0 0 63 76 A 6 6 0 0 0 62.794922 74.447266 L 69.455078 67.789062 A 6 6 0 0 0 71 68 A 6 6 0 0 0 77 62 A 6 6 0 0 0 71 56 z M 71 58 C 73.232826 58 75 59.76717 75 62 C 75 64.23148 73.234834 65.99788 71.003906 66 C 70.658547 65.997 70.313712 65.950205 69.980469 65.859375 L 68.861328 65.554688 L 60.564453 73.851562 L 60.863281 74.966797 C 60.953381 75.302527 60.999347 75.648494 61 75.996094 C 60.9977 76.342594 60.95045 76.687184 60.859375 77.021484 L 60.554688 78.140625 L 68.859375 86.447266 L 69.978516 86.140625 C 70.312803 86.049625 70.65746 86.0023 71.003906 86 C 73.234835 86 75 87.7685 75 90 C 75 92.2329 73.232826 94 71 94 C 68.768512 94 67.002116 92.234906 67 90.003906 C 67.0025 89.658606 67.04983 89.315722 67.140625 88.982422 L 67.445312 87.863281 L 59.140625 79.554688 L 58.021484 79.859375 C 57.687197 79.950375 57.34254 79.9978 56.996094 80 C 54.765166 80 53 78.2315 53 76 C 52.999993 73.7672 54.767169 72 57 72 C 57.349546 72.00015 57.697557 72.046099 58.035156 72.136719 L 59.150391 72.4375 L 67.445312 64.140625 L 67.140625 63.021484 C 67.049547 62.687204 67.002257 62.342544 67 61.996094 C 67.0021 59.765164 68.768513 58 71 58 z "
       transform="translate(0,924.36218)" />
  </g>
</svg>
