<?xml version="1.0" encoding="UTF-8" standalone="no"?>
<!-- Created with Inkscape (http://www.inkscape.org/) -->

<svg
   width="128"
   height="128"
   id="svg2"
   version="1.1"
   inkscape:version="1.1.1 (3bf5ae0d25, 2021-09-20)"
   sodipodi:docname="folder-remote.svg"
   xmlns:inkscape="http://www.inkscape.org/namespaces/inkscape"
   xmlns:sodipodi="http://sodipodi.sourceforge.net/DTD/sodipodi-0.dtd"
   xmlns:xlink="http://www.w3.org/1999/xlink"
   xmlns="http://www.w3.org/2000/svg"
   xmlns:svg="http://www.w3.org/2000/svg"
   xmlns:rdf="http://www.w3.org/1999/02/22-rdf-syntax-ns#"
   xmlns:cc="http://creativecommons.org/ns#"
   xmlns:dc="http://purl.org/dc/elements/1.1/">
  <defs
     id="defs4">
    <inkscape:perspective
       sodipodi:type="inkscape:persp3d"
       inkscape:vp_x="0 : 64 : 1"
       inkscape:vp_y="0 : 1000 : 0"
       inkscape:vp_z="128 : 64 : 1"
       inkscape:persp3d-origin="64 : 42.666667 : 1"
       id="perspective8890" />
    <linearGradient
       id="linearGradient3785-6">
      <stop
         style="stop-color:#ffffff;stop-opacity:1;"
         offset="0"
         id="stop3787-4" />
      <stop
         style="stop-color:#d6d6d6;stop-opacity:1;"
         offset="1"
         id="stop3789-3" />
    </linearGradient>
    <linearGradient
       id="linearGradient3802-3">
      <stop
         style="stop-color:#ffc475;stop-opacity:1;"
         offset="0"
         id="stop3804-4" />
      <stop
         style="stop-color:#ff004a;stop-opacity:1;"
         offset="1"
         id="stop3806-1" />
    </linearGradient>
    <radialGradient
       inkscape:collect="always"
       xlink:href="#linearGradient3802-3"
       id="radialGradient3852"
       cx="153.60025"
       cy="1046.2241"
       fx="153.60025"
       fy="1046.2241"
       r="7.5"
       gradientTransform="matrix(1.6666654,-3.5764157e-7,3.5147543e-7,1.5999884,-101.0006,-626.5843)"
       gradientUnits="userSpaceOnUse" />
    <linearGradient
       id="linearGradient3802-3-5">
      <stop
         style="stop-color:#ffc475;stop-opacity:1;"
         offset="0"
         id="stop3804-4-7" />
      <stop
         style="stop-color:#ff004a;stop-opacity:1;"
         offset="1"
         id="stop3806-1-0" />
    </linearGradient>
    <linearGradient
       id="linearGradient3785-0-1">
      <stop
         style="stop-color:#ffffff;stop-opacity:1;"
         offset="0"
         id="stop3787-7-8" />
      <stop
         style="stop-color:#d6d6d6;stop-opacity:1;"
         offset="1"
         id="stop3789-1-7" />
    </linearGradient>
    <clipPath
       clipPathUnits="userSpaceOnUse"
       id="clipPath4405">
      <path
         id="path4407"
         style="opacity:0.8;fill:#0094af;fill-opacity:1;stroke:none;stroke-width:0.416667;stroke-miterlimit:4;stroke-dasharray:none"
         d="m 4,936.36218 c -2.2159999,0 -4,1.784 -4,4 v 8 28 c 0,-2.216 1.7840001,-4 4,-4 H 22.666016 25.333984 40 c 7.999998,0 8.000003,-8 16,-8 h 68 c 2.216,0 4,1.784 4,4 v -20 c 0,-2.216 -1.784,-4 -4,-4 H 53.333984 c -10.666667,0 -10.667318,-8 -21.333984,-8 z" />
    </clipPath>
    <filter
       inkscape:collect="always"
       style="color-interpolation-filters:sRGB"
       id="filter4275"
       x="-0.059765635"
       y="-0.10065787"
       width="1.1195313"
       height="1.2013157">
      <feGaussianBlur
         inkscape:collect="always"
         stdDeviation="3.1875004"
         id="feGaussianBlur4277" />
    </filter>
    <radialGradient
       inkscape:collect="always"
       xlink:href="#coverGradient"
       id="radialGradient2626"
       cx="72.521233"
       cy="998.11505"
       fx="72.521233"
       fy="998.11505"
       r="64"
       gradientTransform="matrix(1.4375003,0,-2.6475526e-5,1.4375021,-40.222863,-458.43033)"
       gradientUnits="userSpaceOnUse" />
    <linearGradient
       inkscape:collect="always"
       id="coverGradient">
      <stop
         style="stop-color:#5de0ff;stop-opacity:0.8"
         offset="0"
         id="stop8414" />
      <stop
         style="stop-color:#0094af;stop-opacity:0.8"
         offset="1"
         id="stop8416" />
    </linearGradient>
    <radialGradient
       inkscape:collect="always"
       xlink:href="#coverGradient"
       id="radialGradient4484"
       cx="156"
       cy="76.111115"
       fx="156"
       fy="76.111115"
       r="16"
       gradientTransform="matrix(1.53125,0,0,1.5312505,-82.875,887.817)"
       gradientUnits="userSpaceOnUse" />
    <clipPath
       clipPathUnits="userSpaceOnUse"
       id="clipPath4920">
      <path
         id="path4922"
         style="opacity:1;fill:#75507b;stroke:none;stroke-width:8;stroke-linecap:round;stroke-linejoin:bevel;stroke-miterlimit:4;stroke-dasharray:none"
         d="m 64,60 a 20,20 0 0 0 -20,20 20,20 0 0 0 5.894531,14.105469 l 4.19336,-4.19336 A 14.071069,14.071069 0 0 1 50,80.070312 14.071069,14.071069 0 0 1 64.070312,66 a 14.071069,14.071069 0 0 1 14.072266,14.070312 14.071069,14.071069 0 0 1 -4.125,9.947266 l 4.087891,4.087891 A 20,20 0 0 0 84,80 20,20 0 0 0 64,60 Z m 0,8 a 12,12 0 0 0 -12,12 12,12 0 0 0 3.537109,8.462891 l 2.826172,-2.826172 A 7.9999976,7.9999976 0 0 1 56,80 a 7.9999976,7.9999976 0 0 1 8,-8 7.9999976,7.9999976 0 0 1 8,8 7.9999976,7.9999976 0 0 1 -2.34375,5.65625 l 2.806641,2.806641 A 12,12 0 0 0 76,80 12,12 0 0 0 64,68 Z m 0,6 a 6,6 0 0 0 -6,6 6,6 0 0 0 4.261719,5.738281 L 48,100 H 80 L 65.738281,85.738281 A 6,6 0 0 0 70,80 6,6 0 0 0 64,74 Z" />
    </clipPath>
  </defs>
  <sodipodi:namedview
     id="base"
     pagecolor="#ffffff"
     bordercolor="#666666"
     borderopacity="1.0"
     inkscape:pageopacity="0.0"
     inkscape:pageshadow="2"
     inkscape:zoom="3.8624782"
     inkscape:cx="55.145943"
     inkscape:cy="73.916275"
     inkscape:document-units="px"
     inkscape:current-layer="layer1"
     showgrid="true"
     inkscape:window-width="1920"
     inkscape:window-height="1001"
     inkscape:window-x="0"
     inkscape:window-y="0"
     inkscape:window-maximized="1"
     inkscape:pagecheckerboard="0"
     inkscape:snap-bbox="true"
     inkscape:bbox-paths="true"
     inkscape:snap-bbox-midpoints="true"
     inkscape:bbox-nodes="true"
     inkscape:snap-intersection-paths="true"
     inkscape:snap-bbox-edge-midpoints="true"
     inkscape:snap-midpoints="true"
     inkscape:snap-object-midpoints="true"
     inkscape:snap-center="true">
    <inkscape:grid
       type="xygrid"
       id="grid3000"
       empspacing="4"
       visible="true"
       enabled="true"
       snapvisiblegridlinesonly="true" />
  </sodipodi:namedview>
  <metadata
     id="metadata7">
    <rdf:RDF>
      <cc:Work
         rdf:about="">
        <dc:format>image/svg+xml</dc:format>
        <dc:type
           rdf:resource="http://purl.org/dc/dcmitype/StillImage" />
      </cc:Work>
    </rdf:RDF>
  </metadata>
  <g
     inkscape:label="Ebene 1"
     inkscape:groupmode="layer"
     id="layer1"
     transform="translate(0,-924.36218)">
    <g
       id="icon31"
       style="stroke-width:6;stroke-miterlimit:4;stroke-dasharray:none">
      <path
         style="fill:#0094af;fill-opacity:0.8;stroke-width:6;stroke-miterlimit:4;stroke-dasharray:none"
         d="m 145,992.36218 c -0.554,0 -1,0.446 -1,1 v 2.39062 0.60938 20.60942 c 0,0.7707 0.61985,1.3906 1.39062,1.3906 h 29.21876 c 0.77077,0 1.39062,-0.6199 1.39062,-1.3906 v -21.2188 c 0,-0.77077 -0.61985,-1.39062 -1.39062,-1.39062 H 154 c -2,0 -2,-2 -4,-2 h -2 z"
         id="back31"
         sodipodi:nodetypes="ssccsssssssscs" />
      <rect
         style="fill:#5de0ff;fill-opacity:0.8;stroke:none;stroke-width:6;stroke-miterlimit:4;stroke-dasharray:none"
         id="paperB31"
         width="27"
         height="18.999998"
         x="147"
         y="996.36218"
         rx="0.99999738"
         ry="0.99999738" />
      <rect
         style="fill:#ffffff;fill-opacity:0.8;stroke:none;stroke-width:6;stroke-miterlimit:4;stroke-dasharray:none"
         id="paperA31"
         width="27"
         height="18.999998"
         x="146"
         y="997.36218"
         rx="0.99999738"
         ry="0.99999738" />
      <path
         style="fill:url(#radialGradient4484);fill-opacity:1;stroke-width:6;stroke-miterlimit:4;stroke-dasharray:none"
         d="m 156,1000.3622 c -2,0 -2,2 -4,2 h -1 -5.60938 c -0.77077,0 -1.39062,0.6198 -1.39062,1.3906 v 1.5469 0.6719 11 c 0,0.7707 0.61986,1.3906 1.39062,1.3906 h 29.21876 c 0.77076,0 1.39062,-0.6199 1.39062,-1.3906 v -15.2188 c 0,-0.7708 -0.61986,-1.3906 -1.39062,-1.3906 z"
         id="front31"
         inkscape:connector-curvature="0"
         sodipodi:nodetypes="sscssccsssssss" />
    </g>
    <g
       id="icon16"
       style="stroke-width:6;stroke-miterlimit:4;stroke-dasharray:none">
      <path
         style="fill:#0094af;fill-opacity:1;stroke:none;stroke-width:6;stroke-miterlimit:4;stroke-dasharray:none"
         d="m 144,1037.3622 v 1 6 h 16 v -6 h -12 v -1 z"
         id="back16" />
      <rect
         style="fill:#ffffff;fill-opacity:1;stroke:none;stroke-width:6;stroke-miterlimit:4;stroke-dasharray:none"
         id="paper16"
         width="14"
         height="5"
         x="145"
         y="1039.3622" />
      <path
         style="fill:#0094af;fill-opacity:1;stroke:none;stroke-width:6;stroke-miterlimit:4;stroke-dasharray:none"
         d="m 148,1041.3622 v 1 h -4 v 8 h 16 v -9 z"
         id="front16" />
    </g>
    <g
       id="icon128"
       style="stroke-width:6;stroke-miterlimit:4;stroke-dasharray:none">
      <path
         id="back"
         d="m 4.0000017,936.36217 c -2.2159999,0 -3.9999999,1.784 -3.9999999,4 v 8 88.00003 c 0,2.216 1.784,4 3.9999999,4 H 124 c 2.216,0 4,-1.784 4,-4 v -88.00003 c 0,-2.216 -1.784,-4 -4,-4 H 53.333334 c -10.666667,0 -10.666667,-8 -21.333333,-8 z"
         style="opacity:1;fill:#0094af;fill-opacity:0.8;stroke:none;stroke-width:6;stroke-miterlimit:4;stroke-dasharray:none"
         inkscape:connector-curvature="0" />
      <rect
         style="opacity:1;fill:#ffffff;fill-opacity:0.8;stroke:none;stroke-width:6;stroke-miterlimit:4;stroke-dasharray:none"
         id="paperB"
         width="108"
         height="76"
         x="12"
         y="952.36218"
         rx="3.9999986"
         ry="3.9999986" />
      <rect
         style="opacity:1;fill:#ffffff;fill-opacity:0.8;stroke:none;stroke-width:6;stroke-miterlimit:4;stroke-dasharray:none"
         id="paperA"
         width="108"
         height="76"
         x="8"
         y="956.36218"
         rx="3.9999986"
         ry="3.9999986" />
      <path
         id="path4255"
         d="m 56,964.36217 c -7.999997,0 -8.000001,8 -15.999999,8 H 25.333334 22.666668 4.0000017 c -2.2159999,0 -3.9999999,1.784 -3.9999999,4 v 6.66666 4 49.33337 c 0,2.2159 1.784,4 3.9999999,4 H 124 c 2.216,0 4,-1.7841 4,-4 v -68.00003 c 0,-2.216 -1.784,-4 -4,-4 z"
         style="opacity:0.5;fill:#000000;fill-opacity:1;stroke:none;stroke-width:6;stroke-miterlimit:4;stroke-dasharray:none;filter:url(#filter4275)"
         inkscape:connector-curvature="0"
         clip-path="url(#clipPath4405)" />
      <path
         id="front"
         d="m 56,964.36217 c -7.999997,0 -8.000001,8 -15.999999,8 H 25.333334 22.666668 4.0000017 c -2.2159999,0 -3.9999999,1.784 -3.9999999,4 v 6.66666 4 49.33337 c 0,2.2159 1.784,4 3.9999999,4 H 124 c 2.216,0 4,-1.7841 4,-4 v -68.00003 c 0,-2.216 -1.784,-4 -4,-4 z"
         style="opacity:1;fill:url(#radialGradient2626);fill-opacity:1;stroke:none;stroke-width:6;stroke-miterlimit:4;stroke-dasharray:none"
         inkscape:connector-curvature="0" />
    </g>
    <g
       aria-label="128"
       id="text5893-3"
       style="font-size:24px;letter-spacing:0px;word-spacing:0px;stroke-width:6">
      <path
         d="m -53.023437,946.37 h 3.867187 v -13.34766 l -4.207031,0.84375 v -2.15625 l 4.183594,-0.84375 H -46.8125 V 946.37 h 3.867188 v 1.99218 h -10.078125 z"
         id="path1599" />
      <path
         d="m -36.125,946.37 h 8.261719 v 1.99218 H -38.972656 V 946.37 q 1.347656,-1.39454 3.667969,-3.73829 2.332031,-2.35546 2.929687,-3.03515 1.136719,-1.27735 1.582031,-2.15625 0.457032,-0.89063 0.457032,-1.7461 0,-1.39453 -0.984375,-2.27343 -0.972657,-0.87891 -2.542969,-0.87891 -1.113281,0 -2.355469,0.38672 -1.230469,0.38672 -2.636719,1.17187 v -2.39062 q 1.429688,-0.57422 2.671875,-0.86719 1.242188,-0.29297 2.273438,-0.29297 2.71875,0 4.335937,1.35938 1.617188,1.35937 1.617188,3.63281 0,1.07813 -0.410156,2.05078 -0.398438,0.96094 -1.464844,2.27344 -0.292969,0.33984 -1.863281,1.96875 -1.570313,1.61719 -4.429688,4.53516 z"
         id="path1601" />
      <path
         d="m -17.832031,940.05359 q -1.6875,0 -2.660156,0.90234 -0.960938,0.90235 -0.960938,2.48438 0,1.58203 0.960938,2.48437 0.972656,0.90235 2.660156,0.90235 1.6875,0 2.660156,-0.90235 0.972656,-0.91406 0.972656,-2.48437 0,-1.58203 -0.972656,-2.48438 -0.960937,-0.90234 -2.660156,-0.90234 z m -2.367188,-1.00781 q -1.523437,-0.375 -2.378906,-1.41797 -0.84375,-1.04297 -0.84375,-2.54297 0,-2.09766 1.488281,-3.31641 1.5,-1.21875 4.101563,-1.21875 2.613281,0 4.101562,1.21875 1.488281,1.21875 1.488281,3.31641 0,1.5 -0.855468,2.54297 -0.84375,1.04297 -2.355469,1.41797 1.710937,0.39843 2.660156,1.55859 0.960938,1.16016 0.960938,2.83594 0,2.54297 -1.558594,3.90234 -1.546875,1.35938 -4.441406,1.35938 -2.894531,0 -4.453125,-1.35938 -1.546875,-1.35937 -1.546875,-3.90234 0,-1.67578 0.960937,-2.83594 0.960938,-1.16016 2.671875,-1.55859 z m -0.867187,-3.73828 q 0,1.35937 0.84375,2.12109 0.855469,0.76172 2.390625,0.76172 1.523437,0 2.378906,-0.76172 0.867187,-0.76172 0.867187,-2.12109 0,-1.35938 -0.867187,-2.1211 -0.855469,-0.76172 -2.378906,-0.76172 -1.535156,0 -2.390625,0.76172 -0.84375,0.76172 -0.84375,2.1211 z"
         id="path1603" />
    </g>
    <g
       aria-label="31 - 17"
       id="text5901"
       style="font-size:16px;letter-spacing:0px;word-spacing:0px;stroke-width:6">
      <path
         d="m 190.49219,994.07312 q 1.13281,0.24219 1.76562,1.00781 0.64063,0.76563 0.64063,1.89063 0,1.72656 -1.1875,2.67187 -1.1875,0.94527 -3.375,0.94527 -0.73438,0 -1.51563,-0.1484 -0.77344,-0.1406 -1.60156,-0.4297 v -1.52342 q 0.65625,0.38282 1.4375,0.57813 0.78125,0.19531 1.63281,0.19531 1.48438,0 2.25781,-0.58594 0.78125,-0.58593 0.78125,-1.70312 0,-1.03125 -0.72656,-1.60938 -0.71875,-0.58593 -2.00781,-0.58593 h -1.35938 v -1.29688 h 1.42188 q 1.16406,0 1.78125,-0.46094 0.61719,-0.46875 0.61719,-1.34375 0,-0.89843 -0.64063,-1.375 -0.63281,-0.48437 -1.82031,-0.48437 -0.64844,0 -1.39063,0.14062 -0.74218,0.14063 -1.63281,0.4375 v -1.40625 q 0.89844,-0.25 1.67969,-0.375 0.78906,-0.125 1.48437,-0.125 1.79688,0 2.84375,0.82032 1.04688,0.8125 1.04688,2.20312 0,0.96875 -0.55469,1.64063 -0.55469,0.66406 -1.57812,0.92187 z"
         id="path1578" />
      <path
         d="m 196.16406,999.03406 h 2.57813 v -8.89844 l -2.80469,0.5625 v -1.4375 l 2.78906,-0.5625 h 1.57813 v 10.33594 h 2.57812 v 1.32814 h -6.71875 z"
         id="path1580" />
      <path
         d="m 210.22656,995.33875 h 4.21094 V 996.62 h -4.21094 z"
         id="path1582" />
      <path
         d="m 222.28906,999.03406 h 2.57813 v -8.89844 l -2.80469,0.5625 v -1.4375 l 2.78906,-0.5625 h 1.57813 v 10.33594 h 2.57812 v 1.32814 h -6.71875 z"
         id="path1584" />
      <path
         d="m 231.79687,988.69812 h 7.5 V 989.37 l -4.23437,10.9922 h -1.64844 l 3.98438,-10.33595 h -5.60157 z"
         id="path1586" />
    </g>
    <g
       aria-label="16"
       id="text5905"
       style="font-size:16px;letter-spacing:0px;word-spacing:0px;stroke-width:6">
      <path
         d="m 173.98437,1047.0341 h 2.57813 v -8.8985 l -2.80469,0.5625 v -1.4375 l 2.78906,-0.5625 h 1.57813 v 10.336 h 2.57812 v 1.3281 h -6.71875 z"
         id="path1569" />
      <path
         d="m 187.46094,1041.9012 q -1.0625,0 -1.6875,0.7266 -0.61719,0.7266 -0.61719,1.9922 0,1.2578 0.61719,1.9922 0.625,0.7265 1.6875,0.7265 1.0625,0 1.67968,-0.7265 0.625,-0.7344 0.625,-1.9922 0,-1.2656 -0.625,-1.9922 -0.61718,-0.7266 -1.67968,-0.7266 z m 3.13281,-4.9453 v 1.4375 q -0.59375,-0.2812 -1.20313,-0.4297 -0.60156,-0.1484 -1.19531,-0.1484 -1.5625,0 -2.39062,1.0547 -0.82032,1.0547 -0.9375,3.1875 0.46093,-0.6797 1.15625,-1.0391 0.69531,-0.3672 1.53125,-0.3672 1.75781,0 2.77343,1.0704 1.02344,1.0625 1.02344,2.8984 0,1.7969 -1.0625,2.8828 -1.0625,1.0859 -2.82812,1.0859 -2.02344,0 -3.09375,-1.5468 -1.07032,-1.5547 -1.07032,-4.5 0,-2.7657 1.3125,-4.4063 1.3125,-1.6484 3.52344,-1.6484 0.59375,0 1.19531,0.1172 0.60938,0.1172 1.26563,0.3515 z"
         id="path1571" />
    </g>
    <rect
       style="fill:#b3b3b3;fill-opacity:1;stroke:none;stroke-width:6;stroke-miterlimit:4;stroke-dasharray:none"
       id="rect6935"
       y="980.36218"
       x="144"
       rx="4.5902016e-07"
       height="4"
       width="32" />
    <rect
       style="fill:#b3b3b3;fill-opacity:1;stroke:none;stroke-width:6;stroke-miterlimit:4;stroke-dasharray:none"
       id="rect6937"
       y="988.36218"
       x="136"
       rx="4.5902016e-07"
       height="32"
       width="4" />
    <rect
       style="fill:#b3b3b3;fill-opacity:1;stroke:none;stroke-width:6;stroke-miterlimit:4;stroke-dasharray:none"
       id="rect6939"
       y="1028.3622"
       x="144"
       rx="4.5902016e-07"
       height="4"
       width="16" />
    <rect
       style="fill:#b3b3b3;fill-opacity:1;stroke:none;stroke-width:6;stroke-miterlimit:4;stroke-dasharray:none"
       id="rect6941"
       y="1036.3622"
       x="136"
       rx="4.5902016e-07"
       height="16"
       width="4" />
    <path
       inkscape:connector-curvature="0"
       id="path9861"
       d="m 158.99112,1004.3627 a 0.33715146,0.33715146 0 0 0 -0.0679,0.01 c -2.34343,0.5894 -3.76744,2.9882 -3.17806,5.3316 0.28223,1.1222 1.01084,2.0791 2.00197,2.6763 a 0.33715146,0.33715146 0 1 0 0.33453,-0.5698 c -0.83884,-0.5055 -1.44425,-1.3239 -1.68312,-2.2737 -0.5005,-1.9901 0.70712,-4.0105 2.69718,-4.511 a 0.33715146,0.33715146 0 0 0 0,-0.6534 0.33715146,0.33715146 0 0 0 -0.10455,-0.01 z m 1.98107,0 a 0.33715146,0.33715146 0 0 0 -0.0679,0.01 0.33715146,0.33715146 0 0 0 0,0.6534 c 1.99005,0.5005 3.19768,2.5209 2.69718,4.511 -0.23888,0.9498 -0.84429,1.7682 -1.68313,2.2737 a 0.33715146,0.33715146 0 1 0 0.33453,0.5698 c 0.99113,-0.5972 1.71974,-1.5541 2.00198,-2.6763 0.58937,-2.3434 -0.83463,-4.7422 -3.17807,-5.3316 a 0.33715146,0.33715146 0 0 0 -0.10454,-0.01 z m -2.05424,1.4427 a 0.33715146,0.33715146 0 0 0 -0.0993,0.026 c -1.53868,0.6535 -2.27382,2.4392 -1.6204,3.9779 0.18831,0.4434 0.49249,0.8518 0.86247,1.1604 a 0.3383705,0.3383705 0 0 0 0.4234,-0.5279 c -0.28778,-0.2401 -0.50692,-0.5386 -0.65339,-0.8834 -0.511,-1.2033 0.0408,-2.5887 1.24405,-3.0997 a 0.33715146,0.33715146 0 0 0 -0.0679,-0.6482 0.33715146,0.33715146 0 0 0 -0.0889,0 z m 2.09606,0 a 0.33715146,0.33715146 0 0 0 -0.0261,0 0.33715146,0.33715146 0 0 0 -0.0627,0.6482 c 1.20328,0.5109 1.75504,1.8963 1.24405,3.0997 -0.14647,0.3449 -0.36561,0.6434 -0.65339,0.8833 a 0.3383705,0.3383705 0 0 0 0.4234,0.5279 c 0.36998,-0.3085 0.67416,-0.7169 0.86246,-1.1604 0.65343,-1.5387 -0.0817,-3.3244 -1.62039,-3.9778 a 0.33715146,0.33715146 0 0 0 -0.16727,-0.026 z m -1.01406,1.1395 c -0.92693,0 -1.68835,0.7614 -1.68835,1.6883 0,0.6281 0.35471,1.1737 0.8677,1.4636 l -0.85724,3.8524 c -0.0454,0.1971 0.12704,0.4134 0.3293,0.413 l 2.69718,0 c 0.20227,0 0.37477,-0.2159 0.32931,-0.413 l -0.85725,-3.8524 c 0.51299,-0.2899 0.86247,-0.8355 0.86247,-1.4636 0,-0.9269 -0.75619,-1.6883 -1.68312,-1.6883 z"
       style="color:#000000;font-style:normal;font-variant:normal;font-weight:normal;font-stretch:normal;font-size:medium;line-height:normal;font-family:Sans;-inkscape-font-specification:Sans;text-indent:0;text-align:start;text-decoration:none;text-decoration-line:none;letter-spacing:normal;word-spacing:normal;text-transform:none;direction:ltr;block-progression:tb;writing-mode:lr-tb;baseline-shift:baseline;text-anchor:start;display:inline;overflow:visible;visibility:visible;fill:#000000;fill-opacity:1;fill-rule:nonzero;stroke:none;stroke-width:6;marker:none;enable-background:accumulate;stroke-miterlimit:4;stroke-dasharray:none;opacity:0.25" />
    <path
       style="fill:#000000;fill-opacity:1;stroke:none;opacity:0.25;stroke-width:6;stroke-miterlimit:4;stroke-dasharray:none"
       d="M 149 119 L 149 120 L 155 120 L 155 119 L 149 119 z M 150 121 L 150 122 L 154 122 L 154 121 L 150 121 z M 152 123 C 151.446 123 151 123.446 151 124 C 151 124.554 151.446 125 152 125 C 152.554 125 153 124.554 153 124 C 153 123.446 152.554 123 152 123 z "
       transform="translate(0,924.36218)"
       id="rect9867-9" />
    <path
       id="path1091"
       style="opacity:1;fill:#ffffff;fill-opacity:1;stroke:none;stroke-width:6;stroke-linecap:round;stroke-miterlimit:4;stroke-dasharray:none"
       d="M 64 56 C 52.954305 56 44 64.954305 44 76 C 44.0045 81.858401 46.577299 87.420279 51.039062 91.216797 L 53.361328 86.570312 C 50.568915 83.760936 49.001089 79.961082 49 76 C 49 67.715729 55.715729 61 64 61 C 72.284271 61 79 67.715729 79 76 C 78.9989 79.961082 77.431085 83.760936 74.638672 86.570312 L 76.960938 91.216797 C 81.422701 87.420279 83.995543 81.858401 84 76 C 84 64.954305 75.045695 56 64 56 z M 64 63 C 56.820298 63 51 68.820298 51 76 C 51.01074 79.190806 52.194608 82.266221 54.326172 84.640625 L 56.859375 79.576172 C 56.299063 78.467036 56.004829 77.242622 56 76 C 56 71.581722 59.581722 68 64 68 C 68.418278 68 72 71.581722 72 76 C 71.9952 77.242622 71.700937 78.467036 71.140625 79.576172 L 73.673828 84.640625 C 75.805392 82.266221 76.98926 79.190806 77 76 C 77 68.820298 71.179702 63 64 63 z M 64 71 A 5 5 0 0 0 59 76 A 5 5 0 0 0 60.316406 79.369141 L 52 96 L 76 96 L 67.683594 79.369141 A 5 5 0 0 0 69 76 A 5 5 0 0 0 64 71 z "
       transform="translate(0,924.36218)" />
    <path
       id="path3136"
       style="color:#000000;fill:#000000;stroke-linecap:round;-inkscape-stroke:none;opacity:0.25"
       d="M 64 56 C 52.954305 56 44 64.95428 44 76 C 44.0045 81.8584 46.577299 87.420297 51.039062 91.216797 L 53.361328 86.570312 C 50.568915 83.760913 49.001089 79.9611 49 76 C 49 67.71571 55.715729 61 64 61 C 72.284271 61 79 67.71571 79 76 C 78.9989 79.9611 77.431085 83.760913 74.638672 86.570312 L 76.960938 91.216797 C 81.422701 87.420297 83.995543 81.8584 84 76 C 84 64.95428 75.045695 56 64 56 z M 64 58 C 73.964142 58 81.998931 66.034187 82 75.998047 C 81.9967 80.381447 80.322801 84.520791 77.476562 87.775391 L 77 86.822266 C 79.529635 83.782266 80.998893 79.9857 81 76 C 81 66.63484 73.365142 59 64 59 C 54.634858 59 47 66.63484 47 76 C 47.0011 79.9858 48.470364 83.782266 51 86.822266 L 50.523438 87.775391 C 47.677634 84.521291 46.003843 80.3826 46 76 C 46.0011 66.03614 54.035858 58.001953 64 58.001953 L 64 58 z M 64 63 C 56.820298 63 51 68.82028 51 76 C 51.01074 79.1908 52.194608 82.266225 54.326172 84.640625 L 56.859375 79.576172 C 56.299063 78.466972 56.004829 77.2426 56 76 C 56 71.5817 59.581722 68 64 68 C 68.418278 68 72 71.5817 72 76 C 71.9952 77.2426 71.700937 78.466972 71.140625 79.576172 L 73.673828 84.640625 C 75.805392 82.266225 76.98926 79.1908 77 76 C 77 68.82028 71.179702 63 64 63 z M 64 65 C 70.098149 65 74.998928 69.900187 75 75.998047 C 74.994 77.604947 74.535868 79.123941 73.867188 80.556641 L 73.306641 79.4375 C 73.716978 78.3358 73.995436 77.189212 74 76.007812 C 74 70.508642 69.499153 66.007812 64 66.007812 C 58.500847 66.007812 54 70.508643 54 76.007812 C 54.0046 77.189213 54.283028 78.3357 54.693359 79.4375 L 54.132812 80.556641 C 53.464132 79.123941 53.005978 77.604947 53 75.998047 C 53.0011 69.900187 57.901851 65 64 65 z M 64 71 A 5 5 0 0 0 59 76 A 5 5 0 0 0 60.316406 79.369141 L 52 96 L 76 96 L 67.683594 79.369141 A 5 5 0 0 0 69 76 A 5 5 0 0 0 64 71 z M 64 73 C 65.679882 73 66.998964 74.318477 67 75.998047 C 66.9978 76.746747 66.717232 77.465978 66.210938 78.017578 L 65.279297 79.03125 L 72.763672 94 L 55.236328 94 L 62.720703 79.03125 L 61.789062 78.017578 C 61.282769 77.465978 61.002246 76.746747 61 75.998047 C 61.001 74.318477 62.320118 73 64 73 z "
       transform="translate(0,924.36218)" />
  </g>
</svg>
