<?xml version="1.0" encoding="UTF-8" standalone="no"?>
<!-- Created with Inkscape (http://www.inkscape.org/) -->

<svg
   width="128"
   height="128"
   id="svg2"
   version="1.1"
   inkscape:version="1.1.1 (3bf5ae0d25, 2021-09-20)"
   sodipodi:docname="folder-recent.svg"
   xmlns:inkscape="http://www.inkscape.org/namespaces/inkscape"
   xmlns:sodipodi="http://sodipodi.sourceforge.net/DTD/sodipodi-0.dtd"
   xmlns:xlink="http://www.w3.org/1999/xlink"
   xmlns="http://www.w3.org/2000/svg"
   xmlns:svg="http://www.w3.org/2000/svg"
   xmlns:rdf="http://www.w3.org/1999/02/22-rdf-syntax-ns#"
   xmlns:cc="http://creativecommons.org/ns#"
   xmlns:dc="http://purl.org/dc/elements/1.1/">
  <defs
     id="defs4">
    <inkscape:perspective
       sodipodi:type="inkscape:persp3d"
       inkscape:vp_x="0 : 64 : 1"
       inkscape:vp_y="0 : 1000 : 0"
       inkscape:vp_z="128 : 64 : 1"
       inkscape:persp3d-origin="64 : 42.666667 : 1"
       id="perspective8890" />
    <linearGradient
       id="linearGradient3785-6">
      <stop
         style="stop-color:#ffffff;stop-opacity:1;"
         offset="0"
         id="stop3787-4" />
      <stop
         style="stop-color:#d6d6d6;stop-opacity:1;"
         offset="1"
         id="stop3789-3" />
    </linearGradient>
    <linearGradient
       id="linearGradient3802-3">
      <stop
         style="stop-color:#ffc475;stop-opacity:1;"
         offset="0"
         id="stop3804-4" />
      <stop
         style="stop-color:#ff004a;stop-opacity:1;"
         offset="1"
         id="stop3806-1" />
    </linearGradient>
    <radialGradient
       inkscape:collect="always"
       xlink:href="#linearGradient3802-3"
       id="radialGradient3852"
       cx="153.60025"
       cy="1046.2241"
       fx="153.60025"
       fy="1046.2241"
       r="7.5"
       gradientTransform="matrix(1.6666654,-3.5764157e-7,3.5147543e-7,1.5999884,-101.0006,-626.5843)"
       gradientUnits="userSpaceOnUse" />
    <linearGradient
       id="linearGradient3802-3-5">
      <stop
         style="stop-color:#ffc475;stop-opacity:1;"
         offset="0"
         id="stop3804-4-7" />
      <stop
         style="stop-color:#ff004a;stop-opacity:1;"
         offset="1"
         id="stop3806-1-0" />
    </linearGradient>
    <linearGradient
       id="linearGradient3785-0-1">
      <stop
         style="stop-color:#ffffff;stop-opacity:1;"
         offset="0"
         id="stop3787-7-8" />
      <stop
         style="stop-color:#d6d6d6;stop-opacity:1;"
         offset="1"
         id="stop3789-1-7" />
    </linearGradient>
    <clipPath
       clipPathUnits="userSpaceOnUse"
       id="clipPath4405">
      <path
         id="path4407"
         style="opacity:0.8;fill:#ebebeb;fill-opacity:1;stroke:none;stroke-width:0.416667;stroke-miterlimit:4;stroke-dasharray:none"
         d="m 4,936.36218 c -2.2159999,0 -4,1.784 -4,4 v 8 28 c 0,-2.216 1.7840001,-4 4,-4 H 22.666016 25.333984 40 c 7.999998,0 8.000003,-8 16,-8 h 68 c 2.216,0 4,1.784 4,4 v -20 c 0,-2.216 -1.784,-4 -4,-4 H 53.333984 c -10.666667,0 -10.667318,-8 -21.333984,-8 z" />
    </clipPath>
    <filter
       inkscape:collect="always"
       style="color-interpolation-filters:sRGB"
       id="filter4275"
       x="-0.059765635"
       y="-0.10065787"
       width="1.1195313"
       height="1.2013157">
      <feGaussianBlur
         inkscape:collect="always"
         stdDeviation="3.1875004"
         id="feGaussianBlur4277" />
    </filter>
    <radialGradient
       inkscape:collect="always"
       xlink:href="#coverGradient"
       id="radialGradient2626"
       cx="72.521233"
       cy="998.11505"
       fx="72.521233"
       fy="998.11505"
       r="64"
       gradientTransform="matrix(1.4375003,0,-2.6475526e-5,1.4375021,-40.222863,-458.43033)"
       gradientUnits="userSpaceOnUse" />
    <linearGradient
       inkscape:collect="always"
       id="coverGradient">
      <stop
         style="stop-color:#ffffff;stop-opacity:0.8"
         offset="0"
         id="stop8414" />
      <stop
         style="stop-color:#ebebeb;stop-opacity:0.8"
         offset="1"
         id="stop8416" />
    </linearGradient>
    <radialGradient
       inkscape:collect="always"
       xlink:href="#coverGradient"
       id="radialGradient4484"
       cx="156"
       cy="76.111115"
       fx="156"
       fy="76.111115"
       r="16"
       gradientTransform="matrix(1.53125,0,0,1.5312505,-82.875,887.817)"
       gradientUnits="userSpaceOnUse" />
    <clipPath
       clipPathUnits="userSpaceOnUse"
       id="clipPath2944">
      <path
         id="path2946"
         style="opacity:1;fill:#a40000;stroke:none;stroke-width:2;stroke-linecap:round;stroke-linejoin:bevel"
         d="M 64,62 A 18,18 0 0 0 46,80 18,18 0 0 0 64,98 18,18 0 0 0 82,80 18,18 0 0 0 64,62 Z m 0,4 a 2,2 0 0 1 2,2 v 11.171875 l 5.414062,5.414063 a 2,2 0 0 1 0,2.830078 2,2 0 0 1 -2.828124,0 l -6,-6 a 2,2 0 0 1 -0.07813,-0.09766 2,2 0 0 1 -0.130859,-0.166015 2,2 0 0 1 -0.119141,-0.189453 2,2 0 0 1 -0.0957,-0.197266 2,2 0 0 1 -0.07813,-0.228516 2,2 0 0 1 -0.04492,-0.189453 2,2 0 0 1 -0.02734,-0.246094 A 2,2 0 0 1 62,80 V 68 a 2,2 0 0 1 2,-2 z" />
    </clipPath>
  </defs>
  <sodipodi:namedview
     id="base"
     pagecolor="#ffffff"
     bordercolor="#666666"
     borderopacity="1.0"
     inkscape:pageopacity="0.0"
     inkscape:pageshadow="2"
     inkscape:zoom="5.3582624"
     inkscape:cx="132.8789"
     inkscape:cy="77.730422"
     inkscape:document-units="px"
     inkscape:current-layer="layer1"
     showgrid="true"
     inkscape:window-width="1920"
     inkscape:window-height="1001"
     inkscape:window-x="0"
     inkscape:window-y="0"
     inkscape:window-maximized="1"
     inkscape:pagecheckerboard="0"
     inkscape:snap-bbox="true"
     inkscape:snap-bbox-midpoints="true"
     inkscape:bbox-paths="true">
    <inkscape:grid
       type="xygrid"
       id="grid3000"
       empspacing="4"
       visible="true"
       enabled="true"
       snapvisiblegridlinesonly="true" />
  </sodipodi:namedview>
  <metadata
     id="metadata7">
    <rdf:RDF>
      <cc:Work
         rdf:about="">
        <dc:format>image/svg+xml</dc:format>
        <dc:type
           rdf:resource="http://purl.org/dc/dcmitype/StillImage" />
      </cc:Work>
    </rdf:RDF>
  </metadata>
  <g
     inkscape:label="Ebene 1"
     inkscape:groupmode="layer"
     id="layer1"
     transform="translate(0,-924.36218)">
    <g
       id="icon31">
      <path
         style="fill:#ebebeb;fill-opacity:0.8"
         d="m 145,992.36218 c -0.554,0 -1,0.446 -1,1 v 2.39062 0.60938 20.60942 c 0,0.7707 0.61985,1.3906 1.39062,1.3906 h 29.21876 c 0.77077,0 1.39062,-0.6199 1.39062,-1.3906 v -21.2188 c 0,-0.77077 -0.61985,-1.39062 -1.39062,-1.39062 H 154 c -2,0 -2,-2 -4,-2 h -2 z"
         id="back31"
         sodipodi:nodetypes="ssccsssssssscs" />
      <rect
         style="fill:#ffffff;fill-opacity:0.8;stroke:none"
         id="paperB31"
         width="27"
         height="18.999998"
         x="147"
         y="996.36218"
         rx="0.99999738"
         ry="0.99999738" />
      <rect
         style="fill:#ffffff;fill-opacity:0.8;stroke:none"
         id="paperA31"
         width="27"
         height="18.999998"
         x="146"
         y="997.36218"
         rx="0.99999738"
         ry="0.99999738" />
      <path
         style="fill:url(#radialGradient4484);fill-opacity:1"
         d="m 156,1000.3622 c -2,0 -2,2 -4,2 h -1 -5.60938 c -0.77077,0 -1.39062,0.6198 -1.39062,1.3906 v 1.5469 0.6719 11 c 0,0.7707 0.61986,1.3906 1.39062,1.3906 h 29.21876 c 0.77076,0 1.39062,-0.6199 1.39062,-1.3906 v -15.2188 c 0,-0.7708 -0.61986,-1.3906 -1.39062,-1.3906 z"
         id="front31"
         inkscape:connector-curvature="0"
         sodipodi:nodetypes="sscssccsssssss" />
    </g>
    <g
       id="icon16">
      <path
         style="fill:#ebebeb;fill-opacity:1;stroke:none"
         d="m 144,1037.3622 v 1 6 h 16 v -6 h -12 v -1 z"
         id="back16" />
      <rect
         style="fill:#ffffff;fill-opacity:1;stroke:none"
         id="paper16"
         width="14"
         height="5"
         x="145"
         y="1039.3622" />
      <path
         style="fill:#ebebeb;fill-opacity:1;stroke:none"
         d="m 148,1041.3622 v 1 h -4 v 8 h 16 v -9 z"
         id="front16" />
    </g>
    <g
       id="icon128">
      <path
         id="back"
         d="m 4.0000017,936.36217 c -2.2159999,0 -3.9999999,1.784 -3.9999999,4 v 8 88.00003 c 0,2.216 1.784,4 3.9999999,4 H 124 c 2.216,0 4,-1.784 4,-4 v -88.00003 c 0,-2.216 -1.784,-4 -4,-4 H 53.333334 c -10.666667,0 -10.666667,-8 -21.333333,-8 z"
         style="opacity:1;fill:#ebebeb;fill-opacity:0.8;stroke:none;stroke-width:0.416667;stroke-miterlimit:4;stroke-dasharray:none"
         inkscape:connector-curvature="0" />
      <rect
         style="opacity:1;fill:#ffffff;fill-opacity:0.8;stroke:none;stroke-width:0.416667;stroke-miterlimit:4;stroke-dasharray:none"
         id="paperB"
         width="108"
         height="76"
         x="12"
         y="952.36218"
         rx="3.9999986"
         ry="3.9999986" />
      <rect
         style="opacity:1;fill:#ffffff;fill-opacity:0.8;stroke:none;stroke-width:0.416667;stroke-miterlimit:4;stroke-dasharray:none"
         id="paperA"
         width="108"
         height="76"
         x="8"
         y="956.36218"
         rx="3.9999986"
         ry="3.9999986" />
      <path
         id="path4255"
         d="m 56,964.36217 c -7.999997,0 -8.000001,8 -15.999999,8 H 25.333334 22.666668 4.0000017 c -2.2159999,0 -3.9999999,1.784 -3.9999999,4 v 6.66666 4 49.33337 c 0,2.2159 1.784,4 3.9999999,4 H 124 c 2.216,0 4,-1.7841 4,-4 v -68.00003 c 0,-2.216 -1.784,-4 -4,-4 z"
         style="opacity:0.5;fill:#000000;fill-opacity:1;stroke:none;stroke-width:0.416667;stroke-miterlimit:4;stroke-dasharray:none;filter:url(#filter4275)"
         inkscape:connector-curvature="0"
         clip-path="url(#clipPath4405)" />
      <path
         id="front"
         d="m 56,964.36217 c -7.999997,0 -8.000001,8 -15.999999,8 H 25.333334 22.666668 4.0000017 c -2.2159999,0 -3.9999999,1.784 -3.9999999,4 v 6.66666 4 49.33337 c 0,2.2159 1.784,4 3.9999999,4 H 124 c 2.216,0 4,-1.7841 4,-4 v -68.00003 c 0,-2.216 -1.784,-4 -4,-4 z"
         style="opacity:1;fill:url(#radialGradient2626);fill-opacity:1;stroke:none;stroke-width:0.416667;stroke-miterlimit:4;stroke-dasharray:none"
         inkscape:connector-curvature="0" />
    </g>
    <text
       style="font-style:normal;font-weight:normal;font-size:24px;line-height:0%;font-family:sans-serif;letter-spacing:0px;word-spacing:0px;fill:#000000;fill-opacity:1;stroke:none"
       xml:space="preserve"
       id="text5893-3"
       y="948.36218"
       x="-56"><tspan
         id="tspan5895-8"
         y="948.36218"
         x="-56"
         style="font-family:sans-serif">128</tspan></text>
    <text
       style="font-style:normal;font-weight:normal;font-size:16px;line-height:0%;font-family:sans-serif;letter-spacing:0px;word-spacing:0px;fill:#000000;fill-opacity:1;stroke:none"
       xml:space="preserve"
       id="text5901"
       y="1000.3622"
       x="184"><tspan
         id="tspan5903"
         y="1000.3622"
         x="184"
         style="font-family:sans-serif">31 - 17</tspan></text>
    <text
       style="font-style:normal;font-weight:normal;font-size:16px;line-height:0%;font-family:sans-serif;letter-spacing:0px;word-spacing:0px;fill:#000000;fill-opacity:1;stroke:none"
       xml:space="preserve"
       id="text5905"
       y="1048.3622"
       x="172"><tspan
         id="tspan5907"
         y="1048.3622"
         x="172"
         style="font-family:sans-serif">16</tspan></text>
    <rect
       style="fill:none;stroke:#000000;stroke-width:1;stroke-linecap:round;stroke-linejoin:round;stroke-miterlimit:4;stroke-dasharray:none;stroke-dashoffset:0;stroke-opacity:1"
       id="rect5919"
       y="984.36218"
       x="140"
       rx="4.5902016e-07"
       height="40"
       width="40" />
    <rect
       style="fill:none;stroke:#000000;stroke-width:1;stroke-linecap:round;stroke-linejoin:round;stroke-miterlimit:4;stroke-dasharray:none;stroke-dashoffset:0;stroke-opacity:1"
       id="rect5921"
       y="1032.3622"
       x="140"
       rx="4.5902016e-07"
       height="24"
       width="24" />
    <rect
       style="fill:#b3b3b3;fill-opacity:1;stroke:none"
       id="rect6935"
       y="980.36218"
       x="144"
       rx="4.5902016e-07"
       height="4"
       width="32" />
    <rect
       style="fill:#b3b3b3;fill-opacity:1;stroke:none"
       id="rect6937"
       y="988.36218"
       x="136"
       rx="4.5902016e-07"
       height="32"
       width="4" />
    <rect
       style="fill:#b3b3b3;fill-opacity:1;stroke:none"
       id="rect6939"
       y="1028.3622"
       x="144"
       rx="4.5902016e-07"
       height="4"
       width="16" />
    <rect
       style="fill:#b3b3b3;fill-opacity:1;stroke:none"
       id="rect6941"
       y="1036.3622"
       x="136"
       rx="4.5902016e-07"
       height="16"
       width="4" />
    <path
       id="path2066"
       style="opacity:1;fill:#ffffff;stroke:none;stroke-width:2;stroke-linecap:round;stroke-linejoin:bevel"
       d="m 64,982.36218 c -9.941125,0 -18,8.05888 -18,18.00002 0,9.9411 8.058875,18 18,18 9.941125,0 18,-8.0589 18,-18 0,-9.94114 -8.058875,-18.00002 -18,-18.00002 z m 0,6 c 1.104569,0 2,0.89543 2,2 v 9.17188 l 5.414062,5.41404 c 0.78215,0.7813 0.78215,2.0489 0,2.8301 -0.781014,0.7808 -2.04711,0.7808 -2.828124,0 l -6,-6 c -0.02705,-0.032 -0.05311,-0.064 -0.07813,-0.098 -0.04652,-0.053 -0.0902,-0.1084 -0.130859,-0.166 -0.04322,-0.061 -0.08299,-0.1241 -0.119141,-0.1894 -0.03548,-0.064 -0.06743,-0.1298 -0.0957,-0.1973 -0.03062,-0.074 -0.05671,-0.1508 -0.07813,-0.2285 -0.01804,-0.062 -0.03303,-0.1256 -0.04492,-0.1895 -0.01419,-0.081 -0.02332,-0.1635 -0.02734,-0.2461 -0.0048,-0.034 -0.0087,-0.068 -0.01172,-0.1015 v -10.00002 c 0,-1.10457 0.895431,-2 2,-2 z"
       sodipodi:nodetypes="ssssssscccccccccccccss" />
    <path
       id="path3034"
       style="opacity:0.25;fill:#000000;stroke:none;stroke-width:4;stroke-linecap:round;stroke-linejoin:bevel;stroke-miterlimit:4;stroke-dasharray:none"
       d="M 160 80 A 5 5 0 0 0 155 85 A 5 5 0 0 0 160 90 A 5 5 0 0 0 165 85 A 5 5 0 0 0 160 80 z M 160 81.5 A 0.5 0.5 0 0 1 160.5 82 L 160.5 84.792969 L 162.35352 86.646484 A 0.5 0.5 0 0 1 162.35352 87.353516 A 0.5 0.5 0 0 1 161.64648 87.353516 L 159.64648 85.353516 A 0.5 0.5 0 0 1 159.625 85.326172 A 0.5 0.5 0 0 1 159.59766 85.292969 A 0.5 0.5 0 0 1 159.56445 85.240234 A 0.5 0.5 0 0 1 159.53906 85.1875 A 0.5 0.5 0 0 1 159.52344 85.142578 A 0.5 0.5 0 0 1 159.50781 85.072266 A 0.5 0.5 0 0 1 159.50391 85.037109 A 0.5 0.5 0 0 1 159.5 85 L 159.5 82 A 0.5 0.5 0 0 1 160 81.5 z "
       transform="translate(0,924.36218)" />
    <path
       id="path3696"
       style="opacity:0.25;fill:#000000;stroke:none;stroke-width:4;stroke-linecap:round;stroke-linejoin:bevel;stroke-miterlimit:4;stroke-dasharray:none"
       d="M 152 119 A 3 3 0 0 0 149 122 A 3 3 0 0 0 152 125 A 3 3 0 0 0 155 122 L 152 122 L 152 119 z "
       transform="translate(0,924.36218)" />
    <path
       id="path1131"
       style="color:#000000;fill:#000000;stroke-linecap:round;stroke-linejoin:bevel;-inkscape-stroke:none;opacity:0.25"
       d="M 64 58 C 54.058875 58 46 66.05886 46 76 C 46 85.9411 54.058875 94 64 94 C 73.941125 94 82 85.9411 82 76 C 82 66.05886 73.941125 58 64 58 z M 64 60 C 72.860235 60 80 67.13978 80 76 C 80 84.8602 72.860232 92 64 92 C 55.139768 92 48 84.8602 48 76 C 48 67.13978 55.139765 60 64 60 z M 64 62 C 61.814553 62 60 63.81455 60 66 L 60 76 L 60.007812 76.179688 C 60.013813 76.245688 60.02161 76.312559 60.03125 76.380859 L 60.013672 76.199219 C 60.021672 76.364119 60.039499 76.528659 60.068359 76.693359 L 60.072266 76.712891 C 60.094836 76.834091 60.124796 76.954625 60.160156 77.078125 C 60.201826 77.227625 60.251986 77.378297 60.314453 77.529297 L 60.316406 77.539062 C 60.373186 77.674662 60.437349 77.806494 60.507812 77.933594 C 60.580352 78.064494 60.659693 78.189394 60.744141 78.308594 C 60.791881 78.376594 60.844739 78.439606 60.896484 78.503906 C 60.934134 78.554906 60.962801 78.5869 60.994141 78.625 C 60.997841 78.625 61.000206 78.636625 61.003906 78.640625 C 61.021066 78.661625 61.044244 78.690031 61.058594 78.707031 L 61.171875 78.832031 L 67.171875 84.832031 C 68.717182 86.376831 71.282818 86.376831 72.828125 84.832031 C 74.375654 83.286331 74.375507 80.717575 72.828125 79.171875 L 68 74.34375 L 68 66 C 68 63.81455 66.185447 62 64 62 z M 64 64 C 65.104569 64 66 64.89543 66 66 L 66 75.171875 L 71.414062 80.585938 C 72.196213 81.367237 72.196213 82.634816 71.414062 83.416016 C 70.633049 84.196816 69.366951 84.196816 68.585938 83.416016 L 62.585938 77.416016 C 62.558887 77.384016 62.532833 77.352359 62.507812 77.318359 C 62.461292 77.265359 62.417612 77.209944 62.376953 77.152344 C 62.333733 77.091344 62.293963 77.028191 62.257812 76.962891 C 62.222333 76.898891 62.190379 76.833125 62.162109 76.765625 C 62.131489 76.691625 62.105404 76.614809 62.083984 76.537109 C 62.065944 76.475109 62.050953 76.411556 62.039062 76.347656 C 62.024873 76.266656 62.015739 76.184162 62.011719 76.101562 C 62.006919 76.067563 62.00302 76.0335 62 76 L 62 66 C 62 64.89543 62.895431 64 64 64 z "
       transform="translate(0,924.36218)" />
  </g>
</svg>
